<?xml version="1.0" encoding="UTF-8" standalone="no"?>
<!DOCTYPE svg PUBLIC "-//W3C//DTD SVG 1.1//EN"
 "http://www.w3.org/Graphics/SVG/1.1/DTD/svg11.dtd">
<!-- Generated by graphviz version 5.0.0 (0)
 -->
<!-- Title: async_comm Pages: 1 -->
<svg width="256pt" height="84pt"
 viewBox="0.00 0.00 256.00 84.00" xmlns="http://www.w3.org/2000/svg" xmlns:xlink="http://www.w3.org/1999/xlink">
<g id="graph0" class="graph" transform="scale(1 1) rotate(0) translate(4 80)">
<title>async_comm</title>
<polygon fill="white" stroke="transparent" points="-4,4 -4,-80 252,-80 252,4 -4,4"/>
<!-- Node1 -->
<g id="node1" class="node">
<title>Node1</title>
<g id="a_node1"><a xlink:title="base helper class for async MPI communcation">
<polygon fill="#bfbfbf" stroke="black" points="76.5,-56.5 76.5,-75.5 157.5,-75.5 157.5,-56.5 76.5,-56.5"/>
<text text-anchor="middle" x="117" y="-63.5" font-family="Helvetica,sans-Serif" font-size="10.00">async_comm</text>
</a>
</g>
</g>
<!-- Node2 -->
<g id="node2" class="node">
<title>Node2</title>
<g id="a_node2"><a xlink:href="classasync__comm__out.html" target="_top" xlink:title="derived helper class providing async message sending">
<polygon fill="white" stroke="black" points="0,-0.5 0,-19.5 102,-19.5 102,-0.5 0,-0.5"/>
<text text-anchor="middle" x="51" y="-7.5" font-family="Helvetica,sans-Serif" font-size="10.00">async_comm_out</text>
</a>
</g>
</g>
<!-- Node1&#45;&gt;Node2 -->
<g id="edge1" class="edge">
<title>Node1&#45;&gt;Node2</title>
<path fill="none" stroke="midnightblue" d="M98.45,-49.82C86.62,-40.15 71.71,-27.95 61.8,-19.83"/>
<polygon fill="midnightblue" stroke="midnightblue" points="96.44,-52.7 106.4,-56.32 100.87,-47.28 96.44,-52.7"/>
</g>
<!-- Node3 -->
<g id="node3" class="node">
<title>Node3</title>
<g id="a_node3"><a xlink:href="classfake__async__comm__out.html" target="_top" xlink:title="derived helper class for synchronous messaging (debug communication)">
<polygon fill="white" stroke="black" points="120,-0.5 120,-19.5 248,-19.5 248,-0.5 120,-0.5"/>
<text text-anchor="middle" x="184" y="-7.5" font-family="Helvetica,sans-Serif" font-size="10.00">fake_async_comm_out</text>
</a>
</g>
</g>
<!-- Node1&#45;&gt;Node3 -->
<g id="edge2" class="edge">
<title>Node1&#45;&gt;Node3</title>
<path fill="none" stroke="midnightblue" d="M135.83,-49.82C147.84,-40.15 162.97,-27.95 173.04,-19.83"/>
<polygon fill="midnightblue" stroke="midnightblue" points="133.35,-47.32 127.76,-56.32 137.75,-52.77 133.35,-47.32"/>
</g>
</g>
</svg>
