<?xml version="1.0" encoding="UTF-8" standalone="no"?>
<!DOCTYPE svg PUBLIC "-//W3C//DTD SVG 1.1//EN"
 "http://www.w3.org/Graphics/SVG/1.1/DTD/svg11.dtd">
<!-- Generated by graphviz version 5.0.0 (0)
 -->
<!-- Title: simple_acceptance_computation&lt; prng_t, cfg_vector_t, prec_t, value_comp_t, acc_prob_comp_t &gt; Pages: 1 -->
<svg width="483pt" height="61pt"
 viewBox="0.00 0.00 483.00 61.00" xmlns="http://www.w3.org/2000/svg" xmlns:xlink="http://www.w3.org/1999/xlink">
<g id="graph0" class="graph" transform="scale(1 1) rotate(0) translate(4 57)">
<title>simple_acceptance_computation&lt; prng_t, cfg_vector_t, prec_t, value_comp_t, acc_prob_comp_t &gt;</title>
<polygon fill="white" stroke="transparent" points="-4,4 -4,-57 479,-57 479,4 -4,4"/>
<!-- Node1 -->
<g id="node1" class="node">
<title>Node1</title>
<g id="a_node1"><a xlink:title="decides over acceptance of a new state in a markov chain using a exact value">
<polygon fill="#bfbfbf" stroke="black" points="273,-6 273,-47 475,-47 475,-6 273,-6"/>
<text text-anchor="start" x="281" y="-35" font-family="Helvetica,sans-Serif" font-size="10.00">simple_acceptance_computation</text>
<text text-anchor="start" x="281" y="-24" font-family="Helvetica,sans-Serif" font-size="10.00">&lt; prng_t, cfg_vector_t, prec</text>
<text text-anchor="middle" x="374" y="-13" font-family="Helvetica,sans-Serif" font-size="10.00">_t, value_comp_t, acc_prob_comp_t &gt;</text>
</a>
</g>
</g>
<!-- Node2 -->
<g id="node2" class="node">
<title>Node2</title>
<g id="a_node2"><a xlink:href="structsimple__acceptance__computation_1_1state__data__t.html" target="_top" xlink:title="compute and represent a state of a markov chain">
<polygon fill="white" stroke="black" points="0,-0.5 0,-52.5 182,-52.5 182,-0.5 0,-0.5"/>
<text text-anchor="start" x="8" y="-40.5" font-family="Helvetica,sans-Serif" font-size="10.00">simple_acceptance_computation</text>
<text text-anchor="start" x="8" y="-29.5" font-family="Helvetica,sans-Serif" font-size="10.00">&lt; prng_t, cfg_vector_t, prec</text>
<text text-anchor="start" x="8" y="-18.5" font-family="Helvetica,sans-Serif" font-size="10.00">_t, value_comp_t, acc_prob_comp</text>
<text text-anchor="middle" x="91" y="-7.5" font-family="Helvetica,sans-Serif" font-size="10.00">_t &gt;::state_data_t</text>
</a>
</g>
</g>
<!-- Node2&#45;&gt;Node1 -->
<g id="edge1" class="edge">
<title>Node2&#45;&gt;Node1</title>
<path fill="none" stroke="#9a32cd" stroke-dasharray="5,2" d="M192.35,-26.5C218.47,-26.5 246.61,-26.5 272.72,-26.5"/>
<polygon fill="#9a32cd" stroke="#9a32cd" points="192.07,-23 182.07,-26.5 192.07,-30 192.07,-23"/>
<text text-anchor="middle" x="227.5" y="-29.5" font-family="Helvetica,sans-Serif" font-size="10.00"> state_data</text>
</g>
</g>
</svg>
