<?xml version="1.0" encoding="UTF-8" standalone="no"?>
<!DOCTYPE svg PUBLIC "-//W3C//DTD SVG 1.1//EN"
 "http://www.w3.org/Graphics/SVG/1.1/DTD/svg11.dtd">
<!-- Generated by graphviz version 5.0.0 (0)
 -->
<!-- Title: remote_computation_group&lt; remote_execution_context_t, type_abstraction_adapter_t &gt; Pages: 1 -->
<svg width="290pt" height="217pt"
 viewBox="0.00 0.00 289.50 217.00" xmlns="http://www.w3.org/2000/svg" xmlns:xlink="http://www.w3.org/1999/xlink">
<g id="graph0" class="graph" transform="scale(1 1) rotate(0) translate(4 213)">
<title>remote_computation_group&lt; remote_execution_context_t, type_abstraction_adapter_t &gt;</title>
<polygon fill="white" stroke="transparent" points="-4,4 -4,-213 285.5,-213 285.5,4 -4,4"/>
<!-- Node1 -->
<g id="node1" class="node">
<title>Node1</title>
<g id="a_node1"><a xlink:title="manager class to execute functions on remote nodes using a remote execution context">
<polygon fill="#bfbfbf" stroke="black" points="44.5,-0.5 44.5,-52.5 199.5,-52.5 199.5,-0.5 44.5,-0.5"/>
<text text-anchor="start" x="52.5" y="-40.5" font-family="Helvetica,sans-Serif" font-size="10.00">remote_computation</text>
<text text-anchor="start" x="52.5" y="-29.5" font-family="Helvetica,sans-Serif" font-size="10.00">_group&lt; remote_execution</text>
<text text-anchor="start" x="52.5" y="-18.5" font-family="Helvetica,sans-Serif" font-size="10.00">_context_t, type_abstraction</text>
<text text-anchor="middle" x="122" y="-7.5" font-family="Helvetica,sans-Serif" font-size="10.00">_adapter_t &gt;</text>
</a>
</g>
</g>
<!-- Node2 -->
<g id="node2" class="node">
<title>Node2</title>
<g id="a_node2"><a xlink:href="classasync__comm__out.html" target="_top" xlink:title="derived helper class providing async message sending">
<polygon fill="white" stroke="black" points="0,-106 0,-125 102,-125 102,-106 0,-106"/>
<text text-anchor="middle" x="51" y="-113" font-family="Helvetica,sans-Serif" font-size="10.00">async_comm_out</text>
</a>
</g>
</g>
<!-- Node2&#45;&gt;Node1 -->
<g id="edge1" class="edge">
<title>Node2&#45;&gt;Node1</title>
<path fill="none" stroke="#9a32cd" stroke-dasharray="5,2" d="M55.84,-96.08C58.56,-87.9 62.53,-78.46 68,-71 72.84,-64.4 78.92,-58.23 85.24,-52.74"/>
<polygon fill="#9a32cd" stroke="#9a32cd" points="52.44,-95.26 52.96,-105.84 59.15,-97.24 52.44,-95.26"/>
<text text-anchor="middle" x="116.5" y="-74" font-family="Helvetica,sans-Serif" font-size="10.00"> background_comm</text>
</g>
<!-- Node3 -->
<g id="node3" class="node">
<title>Node3</title>
<g id="a_node3"><a xlink:href="classasync__comm.html" target="_top" xlink:title="base helper class for async MPI communcation">
<polygon fill="white" stroke="black" points="9.5,-184 9.5,-203 90.5,-203 90.5,-184 9.5,-184"/>
<text text-anchor="middle" x="50" y="-191" font-family="Helvetica,sans-Serif" font-size="10.00">async_comm</text>
</a>
</g>
</g>
<!-- Node3&#45;&gt;Node2 -->
<g id="edge2" class="edge">
<title>Node3&#45;&gt;Node2</title>
<path fill="none" stroke="midnightblue" d="M50.25,-173.72C50.45,-158.2 50.73,-136.86 50.89,-125.12"/>
<polygon fill="midnightblue" stroke="midnightblue" points="46.75,-173.74 50.11,-183.78 53.75,-173.83 46.75,-173.74"/>
</g>
<!-- Node4 -->
<g id="node4" class="node">
<title>Node4</title>
<g id="a_node4"><a xlink:href="classremote__execution__context.html" target="_top" xlink:title="context for remote function execution including on_result functions">
<polygon fill="white" stroke="black" points="121,-100.5 121,-130.5 267,-130.5 267,-100.5 121,-100.5"/>
<text text-anchor="start" x="129" y="-118.5" font-family="Helvetica,sans-Serif" font-size="10.00">remote_execution_context</text>
<text text-anchor="middle" x="194" y="-107.5" font-family="Helvetica,sans-Serif" font-size="10.00">&lt; taa_t &gt;</text>
</a>
</g>
</g>
<!-- Node4&#45;&gt;Node1 -->
<g id="edge3" class="edge">
<title>Node4&#45;&gt;Node1</title>
<path fill="none" stroke="#9a32cd" stroke-dasharray="5,2" d="M179.85,-91.51C175.36,-84.71 170.2,-77.39 165,-71 160.04,-64.91 154.35,-58.7 148.77,-52.96"/>
<polygon fill="#9a32cd" stroke="#9a32cd" points="177.16,-93.78 185.51,-100.31 183.05,-90 177.16,-93.78"/>
<text text-anchor="middle" x="181.5" y="-74" font-family="Helvetica,sans-Serif" font-size="10.00"> rec</text>
</g>
<!-- Node5 -->
<g id="node5" class="node">
<title>Node5</title>
<g id="a_node5"><a xlink:href="classremote__procedure__manager.html" target="_top" xlink:title="class to manager remote procedure calls">
<polygon fill="white" stroke="black" points="108.5,-178.5 108.5,-208.5 281.5,-208.5 281.5,-178.5 108.5,-178.5"/>
<text text-anchor="start" x="116.5" y="-196.5" font-family="Helvetica,sans-Serif" font-size="10.00">remote_procedure_manager</text>
<text text-anchor="middle" x="195" y="-185.5" font-family="Helvetica,sans-Serif" font-size="10.00">&lt; type_abstraction_adapter_t &gt;</text>
</a>
</g>
</g>
<!-- Node5&#45;&gt;Node4 -->
<g id="edge4" class="edge">
<title>Node5&#45;&gt;Node4</title>
<path fill="none" stroke="#9a32cd" stroke-dasharray="5,2" d="M194.68,-168.09C194.52,-155.76 194.33,-141.22 194.19,-130.73"/>
<polygon fill="#9a32cd" stroke="#9a32cd" points="191.18,-168.25 194.81,-178.2 198.18,-168.16 191.18,-168.25"/>
<text text-anchor="middle" x="222.5" y="-152" font-family="Helvetica,sans-Serif" font-size="10.00"> rpmanager</text>
</g>
</g>
</svg>
