<?xml version="1.0" encoding="UTF-8" standalone="no"?>
<!DOCTYPE svg PUBLIC "-//W3C//DTD SVG 1.1//EN"
 "http://www.w3.org/Graphics/SVG/1.1/DTD/svg11.dtd">
<!-- Generated by graphviz version 5.0.0 (0)
 -->
<!-- Title: probsat_resolvents&lt; cfg_vector_t, prec_t, use_bitfield &gt; Pages: 1 -->
<svg width="253pt" height="207pt"
 viewBox="0.00 0.00 253.00 207.00" xmlns="http://www.w3.org/2000/svg" xmlns:xlink="http://www.w3.org/1999/xlink">
<g id="graph0" class="graph" transform="scale(1 1) rotate(0) translate(4 203)">
<title>probsat_resolvents&lt; cfg_vector_t, prec_t, use_bitfield &gt;</title>
<polygon fill="white" stroke="transparent" points="-4,4 -4,-203 249,-203 249,4 -4,4"/>
<!-- Node1 -->
<g id="node1" class="node">
<title>Node1</title>
<g id="a_node1"><a xlink:title="wrapper to create and solve probsat instances with resolvents">
<polygon fill="#bfbfbf" stroke="black" points="61.5,-0.5 61.5,-41.5 176.5,-41.5 176.5,-0.5 61.5,-0.5"/>
<text text-anchor="start" x="69.5" y="-29.5" font-family="Helvetica,sans-Serif" font-size="10.00">probsat_resolvents</text>
<text text-anchor="start" x="69.5" y="-18.5" font-family="Helvetica,sans-Serif" font-size="10.00">&lt; cfg_vector_t, prec</text>
<text text-anchor="middle" x="119" y="-7.5" font-family="Helvetica,sans-Serif" font-size="10.00">_t, use_bitfield &gt;</text>
</a>
</g>
</g>
<!-- Node2 -->
<g id="node2" class="node">
<title>Node2</title>
<g id="a_node2"><a xlink:title=" ">
<polygon fill="white" stroke="#bfbfbf" points="19.5,-111.5 19.5,-130.5 84.5,-130.5 84.5,-111.5 19.5,-111.5"/>
<text text-anchor="middle" x="52" y="-118.5" font-family="Helvetica,sans-Serif" font-size="10.00">std::string</text>
</a>
</g>
</g>
<!-- Node2&#45;&gt;Node1 -->
<g id="edge1" class="edge">
<title>Node2&#45;&gt;Node1</title>
<path fill="none" stroke="#9a32cd" stroke-dasharray="5,2" d="M47.72,-100.93C45.97,-88.44 45.79,-72.23 53,-60 57.36,-52.6 63.77,-46.5 70.89,-41.53"/>
<polygon fill="#9a32cd" stroke="#9a32cd" points="44.35,-101.93 49.6,-111.13 51.23,-100.67 44.35,-101.93"/>
<text text-anchor="middle" x="109" y="-85" font-family="Helvetica,sans-Serif" font-size="10.00"> cnf_file</text>
<text text-anchor="middle" x="109" y="-74" font-family="Helvetica,sans-Serif" font-size="10.00">cnf_file_header</text>
<text text-anchor="middle" x="109" y="-63" font-family="Helvetica,sans-Serif" font-size="10.00">workgroup_description</text>
</g>
<!-- Node3 -->
<g id="node3" class="node">
<title>Node3</title>
<g id="a_node3"><a xlink:title=" ">
<polygon fill="white" stroke="#bfbfbf" points="0,-168.5 0,-198.5 104,-198.5 104,-168.5 0,-168.5"/>
<text text-anchor="start" x="8" y="-186.5" font-family="Helvetica,sans-Serif" font-size="10.00">std::basic_string&lt;</text>
<text text-anchor="middle" x="52" y="-175.5" font-family="Helvetica,sans-Serif" font-size="10.00"> Char &gt;</text>
</a>
</g>
</g>
<!-- Node3&#45;&gt;Node2 -->
<g id="edge2" class="edge">
<title>Node3&#45;&gt;Node2</title>
<path fill="none" stroke="midnightblue" d="M52,-158.35C52,-148.51 52,-137.78 52,-130.54"/>
<polygon fill="midnightblue" stroke="midnightblue" points="48.5,-158.47 52,-168.47 55.5,-158.47 48.5,-158.47"/>
</g>
<!-- Node4 -->
<g id="node4" class="node">
<title>Node4</title>
<g id="a_node4"><a xlink:href="classresolvents__manager.html" target="_top" xlink:title="class to manage resolvents">
<polygon fill="white" stroke="black" points="129,-111.5 129,-130.5 245,-130.5 245,-111.5 129,-111.5"/>
<text text-anchor="middle" x="187" y="-118.5" font-family="Helvetica,sans-Serif" font-size="10.00">resolvents_manager</text>
</a>
</g>
</g>
<!-- Node4&#45;&gt;Node1 -->
<g id="edge3" class="edge">
<title>Node4&#45;&gt;Node1</title>
<path fill="none" stroke="#9a32cd" stroke-dasharray="5,2" d="M182.9,-101.38C179.52,-88.88 173.82,-72.47 165,-60 160.21,-53.24 153.93,-46.99 147.54,-41.6"/>
<polygon fill="#9a32cd" stroke="#9a32cd" points="179.52,-102.29 185.29,-111.17 186.32,-100.63 179.52,-102.29"/>
<text text-anchor="middle" x="207.5" y="-74" font-family="Helvetica,sans-Serif" font-size="10.00"> resolvents</text>
</g>
</g>
</svg>
