<?xml version="1.0" encoding="UTF-8" standalone="no"?>
<!DOCTYPE svg PUBLIC "-//W3C//DTD SVG 1.1//EN"
 "http://www.w3.org/Graphics/SVG/1.1/DTD/svg11.dtd">
<!-- Generated by graphviz version 5.0.0 (0)
 -->
<!-- Title: on_demand_scheduler&lt; remote_execution_context_t, type_abstraction_adapter_t &gt; Pages: 1 -->
<svg width="476pt" height="206pt"
 viewBox="0.00 0.00 475.50 206.00" xmlns="http://www.w3.org/2000/svg" xmlns:xlink="http://www.w3.org/1999/xlink">
<g id="graph0" class="graph" transform="scale(1 1) rotate(0) translate(4 202)">
<title>on_demand_scheduler&lt; remote_execution_context_t, type_abstraction_adapter_t &gt;</title>
<polygon fill="white" stroke="transparent" points="-4,4 -4,-202 471.5,-202 471.5,4 -4,4"/>
<!-- Node1 -->
<g id="node1" class="node">
<title>Node1</title>
<g id="a_node1"><a xlink:title="scheduler for load balancing of probsat computations inside a workgroup">
<polygon fill="#bfbfbf" stroke="black" points="149,-0.5 149,-41.5 325,-41.5 325,-0.5 149,-0.5"/>
<text text-anchor="start" x="157" y="-29.5" font-family="Helvetica,sans-Serif" font-size="10.00">on_demand_scheduler</text>
<text text-anchor="start" x="157" y="-18.5" font-family="Helvetica,sans-Serif" font-size="10.00">&lt; remote_execution_context</text>
<text text-anchor="middle" x="237" y="-7.5" font-family="Helvetica,sans-Serif" font-size="10.00">_t, type_abstraction_adapter_t &gt;</text>
</a>
</g>
</g>
<!-- Node2 -->
<g id="node2" class="node">
<title>Node2</title>
<g id="a_node2"><a xlink:title=" ">
<polygon fill="white" stroke="#bfbfbf" points="0,-95 0,-114 168,-114 168,-95 0,-95"/>
<text text-anchor="middle" x="84" y="-102" font-family="Helvetica,sans-Serif" font-size="10.00">std::unique_ptr&lt; scheduler_t &gt;</text>
</a>
</g>
</g>
<!-- Node2&#45;&gt;Node1 -->
<g id="edge1" class="edge">
<title>Node2&#45;&gt;Node1</title>
<path fill="none" stroke="#9a32cd" stroke-dasharray="5,2" d="M109.21,-90.07C134.03,-76.85 172.2,-56.52 200.37,-41.51"/>
<polygon fill="#9a32cd" stroke="#9a32cd" points="107.26,-87.14 100.08,-94.93 110.56,-93.32 107.26,-87.14"/>
<text text-anchor="middle" x="191.5" y="-63" font-family="Helvetica,sans-Serif" font-size="10.00"> scheduler</text>
</g>
<!-- Node3 -->
<g id="node3" class="node">
<title>Node3</title>
<g id="a_node3"><a xlink:href="classasync__comm__out.html" target="_top" xlink:title="derived helper class providing async message sending">
<polygon fill="white" stroke="black" points="186,-95 186,-114 288,-114 288,-95 186,-95"/>
<text text-anchor="middle" x="237" y="-102" font-family="Helvetica,sans-Serif" font-size="10.00">async_comm_out</text>
</a>
</g>
</g>
<!-- Node3&#45;&gt;Node1 -->
<g id="edge2" class="edge">
<title>Node3&#45;&gt;Node1</title>
<path fill="none" stroke="#9a32cd" stroke-dasharray="5,2" d="M237,-84.75C237,-71.89 237,-54.84 237,-41.76"/>
<polygon fill="#9a32cd" stroke="#9a32cd" points="233.5,-84.78 237,-94.78 240.5,-84.78 233.5,-84.78"/>
<text text-anchor="middle" x="285.5" y="-63" font-family="Helvetica,sans-Serif" font-size="10.00"> background_comm</text>
</g>
<!-- Node4 -->
<g id="node4" class="node">
<title>Node4</title>
<g id="a_node4"><a xlink:href="classasync__comm.html" target="_top" xlink:title="base helper class for async MPI communcation">
<polygon fill="white" stroke="black" points="195.5,-173 195.5,-192 276.5,-192 276.5,-173 195.5,-173"/>
<text text-anchor="middle" x="236" y="-180" font-family="Helvetica,sans-Serif" font-size="10.00">async_comm</text>
</a>
</g>
</g>
<!-- Node4&#45;&gt;Node3 -->
<g id="edge3" class="edge">
<title>Node4&#45;&gt;Node3</title>
<path fill="none" stroke="midnightblue" d="M236.25,-162.72C236.45,-147.2 236.73,-125.86 236.89,-114.12"/>
<polygon fill="midnightblue" stroke="midnightblue" points="232.75,-162.74 236.11,-172.78 239.75,-162.83 232.75,-162.74"/>
</g>
<!-- Node5 -->
<g id="node5" class="node">
<title>Node5</title>
<g id="a_node5"><a xlink:href="classremote__execution__context.html" target="_top" xlink:title="context for remote function execution including on_result functions">
<polygon fill="white" stroke="black" points="307,-89.5 307,-119.5 453,-119.5 453,-89.5 307,-89.5"/>
<text text-anchor="start" x="315" y="-107.5" font-family="Helvetica,sans-Serif" font-size="10.00">remote_execution_context</text>
<text text-anchor="middle" x="380" y="-96.5" font-family="Helvetica,sans-Serif" font-size="10.00">&lt; taa_t &gt;</text>
</a>
</g>
</g>
<!-- Node5&#45;&gt;Node1 -->
<g id="edge4" class="edge">
<title>Node5&#45;&gt;Node1</title>
<path fill="none" stroke="#9a32cd" stroke-dasharray="5,2" d="M362.27,-81.45C355.32,-73.88 346.89,-65.84 338,-60 326.96,-52.75 314.34,-46.61 301.85,-41.52"/>
<polygon fill="#9a32cd" stroke="#9a32cd" points="359.96,-84.13 369.17,-89.36 365.24,-79.53 359.96,-84.13"/>
<text text-anchor="middle" x="360.5" y="-63" font-family="Helvetica,sans-Serif" font-size="10.00"> rec</text>
</g>
<!-- Node6 -->
<g id="node6" class="node">
<title>Node6</title>
<g id="a_node6"><a xlink:href="classremote__procedure__manager.html" target="_top" xlink:title="class to manager remote procedure calls">
<polygon fill="white" stroke="black" points="294.5,-167.5 294.5,-197.5 467.5,-197.5 467.5,-167.5 294.5,-167.5"/>
<text text-anchor="start" x="302.5" y="-185.5" font-family="Helvetica,sans-Serif" font-size="10.00">remote_procedure_manager</text>
<text text-anchor="middle" x="381" y="-174.5" font-family="Helvetica,sans-Serif" font-size="10.00">&lt; type_abstraction_adapter_t &gt;</text>
</a>
</g>
</g>
<!-- Node6&#45;&gt;Node5 -->
<g id="edge5" class="edge">
<title>Node6&#45;&gt;Node5</title>
<path fill="none" stroke="#9a32cd" stroke-dasharray="5,2" d="M380.68,-157.09C380.52,-144.76 380.33,-130.22 380.19,-119.73"/>
<polygon fill="#9a32cd" stroke="#9a32cd" points="377.18,-157.25 380.81,-167.2 384.18,-157.16 377.18,-157.25"/>
<text text-anchor="middle" x="408.5" y="-141" font-family="Helvetica,sans-Serif" font-size="10.00"> rpmanager</text>
</g>
</g>
</svg>
