<?xml version="1.0" encoding="UTF-8" standalone="no"?>
<!DOCTYPE svg PUBLIC "-//W3C//DTD SVG 1.1//EN"
 "http://www.w3.org/Graphics/SVG/1.1/DTD/svg11.dtd">
<!-- Generated by graphviz version 5.0.0 (0)
 -->
<!-- Title: metropolis_hastings_algorithm&lt; marcov_chain_state_t, change_generator_t, acceptance_computation_t, computation_modell_t, acc_prob_comp_t, result_statistics_t, result_function_t, enforce_change, skip_unchanged_vectors &gt; Pages: 1 -->
<!--zoomable 231 -->
<svg id="main" version="1.1" xmlns="http://www.w3.org/2000/svg" xmlns:xlink="http://www.w3.org/1999/xlink" xml:space="preserve" onload="init(evt)">
<style type="text/css"><![CDATA[
.edge:hover path { stroke: red; }
.edge:hover polygon { stroke: red; fill: red; }
]]></style>
<script type="text/javascript"><![CDATA[
var edges = document.getElementsByTagName('g');
if (edges && edges.length) {
  for (var i=0;i<edges.length;i++) {
    if (edges[i].id.substr(0,4)=='edge') {
      edges[i].setAttribute('class','edge');
    }
  }
}
]]></script>
        <defs>
                <circle id="rim" cx="0" cy="0" r="7"/>
                <circle id="rim2" cx="0" cy="0" r="3.5"/>
                <g id="zoomPlus">
                        <use xlink:href="#rim" fill="#404040">
                                <set attributeName="fill" to="#808080" begin="zoomplus.mouseover" end="zoomplus.mouseout"/>
                        </use>
                        <path d="M-4,0h8M0,-4v8" fill="none" stroke="white" stroke-width="1.5" pointer-events="none"/>
                </g>
                <g id="zoomMin">
                        <use xlink:href="#rim" fill="#404040">
                                <set attributeName="fill" to="#808080" begin="zoomminus.mouseover" end="zoomminus.mouseout"/>
                        </use>
                        <path d="M-4,0h8" fill="none" stroke="white" stroke-width="1.5" pointer-events="none"/>
                </g>
                <g id="dirArrow">
                        <path fill="none" stroke="white" stroke-width="1.5" d="M0,-3.0v7 M-2.5,-0.5L0,-3.0L2.5,-0.5"/>
                </g>
               <g id="resetDef">
                       <use xlink:href="#rim2" fill="#404040">
                               <set attributeName="fill" to="#808080" begin="reset.mouseover" end="reset.mouseout"/>
                       </use>
               </g>
        </defs>

<script type="text/javascript">
var viewWidth = 922;
var viewHeight = 231;
var sectionId = 'dynsection-0';
</script>
<script xlink:href="svgpan.js"/>
<svg id="graph" class="graph">
<g id="viewport">
<title>metropolis_hastings_algorithm&lt; marcov_chain_state_t, change_generator_t, acceptance_computation_t, computation_modell_t, acc_prob_comp_t, result_statistics_t, result_function_t, enforce_change, skip_unchanged_vectors &gt;</title>
<polygon fill="white" stroke="transparent" points="-4,4 -4,-227 918,-227 918,4 -4,4"/>
<!-- Node1 -->
<g id="node1" class="node">
<title>Node1</title>
<g id="a_node1"><a xlink:title="generic implementation of the metropolis hastings algorithm for one markov chain">
<polygon fill="#bfbfbf" stroke="black" points="720,-66.5 720,-162.5 914,-162.5 914,-66.5 720,-66.5"/>
<text text-anchor="start" x="728" y="-150.5" font-family="Helvetica,sans-Serif" font-size="10.00">metropolis_hastings</text>
<text text-anchor="start" x="728" y="-139.5" font-family="Helvetica,sans-Serif" font-size="10.00">_algorithm&lt; marcov_chain</text>
<text text-anchor="start" x="728" y="-128.5" font-family="Helvetica,sans-Serif" font-size="10.00">_state_t, change_generator</text>
<text text-anchor="start" x="728" y="-117.5" font-family="Helvetica,sans-Serif" font-size="10.00">_t, acceptance_computation</text>
<text text-anchor="start" x="728" y="-106.5" font-family="Helvetica,sans-Serif" font-size="10.00">_t, computation_modell_t, acc</text>
<text text-anchor="start" x="728" y="-95.5" font-family="Helvetica,sans-Serif" font-size="10.00">_prob_comp_t, result_statistics</text>
<text text-anchor="start" x="728" y="-84.5" font-family="Helvetica,sans-Serif" font-size="10.00">_t, result_function_t, enforce</text>
<text text-anchor="middle" x="817" y="-73.5" font-family="Helvetica,sans-Serif" font-size="10.00">_change, skip_unchanged_vectors &gt;</text>
</a>
</g>
</g>
<!-- Node2 -->
<g id="node2" class="node">
<title>Node2</title>
<g id="a_node2"><a xlink:href="structbinary__configuration__vector.html" target="_top" xlink:title="wrapper for a binary configuration vector used in the MCMC simulation">
<polygon fill="white" stroke="black" points="437.5,-192.5 437.5,-222.5 568.5,-222.5 568.5,-192.5 437.5,-192.5"/>
<text text-anchor="start" x="445.5" y="-210.5" font-family="Helvetica,sans-Serif" font-size="10.00">binary_configuration</text>
<text text-anchor="middle" x="503" y="-199.5" font-family="Helvetica,sans-Serif" font-size="10.00">_vector&lt; use_bitfield &gt;</text>
</a>
</g>
</g>
<!-- Node2&#45;&gt;Node1 -->
<g id="edge1" class="edge">
<title>Node2&#45;&gt;Node1</title>
<path fill="none" stroke="#9a32cd" stroke-dasharray="5,2" d="M564.19,-189.56C608.31,-176.41 669.13,-158.28 719.94,-143.13"/>
<polygon fill="#9a32cd" stroke="#9a32cd" points="563.06,-186.24 554.47,-192.45 565.06,-192.95 563.06,-186.24"/>
<text text-anchor="middle" x="650" y="-179.5" font-family="Helvetica,sans-Serif" font-size="10.00"> next_cfg_vector</text>
</g>
<!-- Node3 -->
<g id="node3" class="node">
<title>Node3</title>
<g id="a_node3"><a xlink:href="classstatistical__acceptance__computation.html" target="_top" xlink:title=" ">
<polygon fill="white" stroke="black" points="426,-110 426,-173 580,-173 580,-110 426,-110"/>
<text text-anchor="start" x="434" y="-161" font-family="Helvetica,sans-Serif" font-size="10.00">statistical_acceptance</text>
<text text-anchor="start" x="434" y="-150" font-family="Helvetica,sans-Serif" font-size="10.00">_computation&lt; prn_engine</text>
<text text-anchor="start" x="434" y="-139" font-family="Helvetica,sans-Serif" font-size="10.00">_t, cfg_vector_t, prec_t,</text>
<text text-anchor="start" x="434" y="-128" font-family="Helvetica,sans-Serif" font-size="10.00"> probsat_modell_t, acc_prob</text>
<text text-anchor="middle" x="503" y="-117" font-family="Helvetica,sans-Serif" font-size="10.00">_comp_t &gt;</text>
</a>
</g>
</g>
<!-- Node3&#45;&gt;Node1 -->
<g id="edge2" class="edge">
<title>Node3&#45;&gt;Node1</title>
<path fill="none" stroke="#9a32cd" stroke-dasharray="5,2" d="M590.36,-134.03C630.53,-130.55 678.44,-126.4 719.77,-122.83"/>
<polygon fill="#9a32cd" stroke="#9a32cd" points="589.98,-130.55 580.32,-134.9 590.59,-137.52 589.98,-130.55"/>
<text text-anchor="middle" x="650" y="-135.5" font-family="Helvetica,sans-Serif" font-size="10.00"> acc_computation</text>
</g>
<!-- Node4 -->
<g id="node4" class="node">
<title>Node4</title>
<g id="a_node4"><a xlink:href="structstatistical__acceptance__computation_1_1state__data__t.html" target="_top" xlink:title="compute a state of a markov chain">
<polygon fill="white" stroke="black" points="141,-110 141,-173 278,-173 278,-110 141,-110"/>
<text text-anchor="start" x="149" y="-161" font-family="Helvetica,sans-Serif" font-size="10.00">statistical_acceptance</text>
<text text-anchor="start" x="149" y="-150" font-family="Helvetica,sans-Serif" font-size="10.00">_computation&lt; prng_t,</text>
<text text-anchor="start" x="149" y="-139" font-family="Helvetica,sans-Serif" font-size="10.00"> cfg_vector_t, prec_t,</text>
<text text-anchor="start" x="149" y="-128" font-family="Helvetica,sans-Serif" font-size="10.00"> value_comp_t, acc_prob</text>
<text text-anchor="middle" x="209.5" y="-117" font-family="Helvetica,sans-Serif" font-size="10.00">_comp_t &gt;::state_data_t</text>
</a>
</g>
</g>
<!-- Node4&#45;&gt;Node3 -->
<g id="edge3" class="edge">
<title>Node4&#45;&gt;Node3</title>
<path fill="none" stroke="#9a32cd" stroke-dasharray="5,2" d="M288.15,-141.5C330.76,-141.5 383.39,-141.5 425.77,-141.5"/>
<polygon fill="#9a32cd" stroke="#9a32cd" points="288.11,-138 278.11,-141.5 288.11,-145 288.11,-138"/>
<text text-anchor="middle" x="352" y="-144.5" font-family="Helvetica,sans-Serif" font-size="10.00"> state_data</text>
</g>
<!-- Node5 -->
<g id="node5" class="node">
<title>Node5</title>
<g id="a_node5"><a xlink:href="classprobsat__resolvents.html" target="_top" xlink:title="wrapper to create and solve probsat instances with resolvents">
<polygon fill="white" stroke="black" points="445.5,-50 445.5,-91 560.5,-91 560.5,-50 445.5,-50"/>
<text text-anchor="start" x="453.5" y="-79" font-family="Helvetica,sans-Serif" font-size="10.00">probsat_resolvents</text>
<text text-anchor="start" x="453.5" y="-68" font-family="Helvetica,sans-Serif" font-size="10.00">&lt; cfg_vector_t, prec</text>
<text text-anchor="middle" x="503" y="-57" font-family="Helvetica,sans-Serif" font-size="10.00">_t, use_bitfield &gt;</text>
</a>
</g>
</g>
<!-- Node5&#45;&gt;Node1 -->
<g id="edge4" class="edge">
<title>Node5&#45;&gt;Node1</title>
<path fill="none" stroke="#9a32cd" stroke-dasharray="5,2" d="M570.67,-79.9C614.1,-86.03 671.46,-94.12 719.8,-100.93"/>
<polygon fill="#9a32cd" stroke="#9a32cd" points="570.89,-76.4 560.5,-78.47 569.91,-83.33 570.89,-76.4"/>
<text text-anchor="middle" x="650" y="-100.5" font-family="Helvetica,sans-Serif" font-size="10.00"> computation_modell</text>
</g>
<!-- Node6 -->
<g id="node6" class="node">
<title>Node6</title>
<g id="a_node6"><a xlink:title=" ">
<polygon fill="white" stroke="#bfbfbf" points="177,-67 177,-86 242,-86 242,-67 177,-67"/>
<text text-anchor="middle" x="209.5" y="-74" font-family="Helvetica,sans-Serif" font-size="10.00">std::string</text>
</a>
</g>
</g>
<!-- Node6&#45;&gt;Node5 -->
<g id="edge5" class="edge">
<title>Node6&#45;&gt;Node5</title>
<path fill="none" stroke="#9a32cd" stroke-dasharray="5,2" d="M252.53,-75.63C303.26,-74.59 388.8,-72.83 445.33,-71.67"/>
<polygon fill="#9a32cd" stroke="#9a32cd" points="252.18,-72.14 242.25,-75.85 252.32,-79.14 252.18,-72.14"/>
<text text-anchor="middle" x="352" y="-99.5" font-family="Helvetica,sans-Serif" font-size="10.00"> cnf_file</text>
<text text-anchor="middle" x="352" y="-88.5" font-family="Helvetica,sans-Serif" font-size="10.00">cnf_file_header</text>
<text text-anchor="middle" x="352" y="-77.5" font-family="Helvetica,sans-Serif" font-size="10.00">workgroup_description</text>
</g>
<!-- Node7 -->
<g id="node7" class="node">
<title>Node7</title>
<g id="a_node7"><a xlink:title=" ">
<polygon fill="white" stroke="#bfbfbf" points="0,-61.5 0,-91.5 104,-91.5 104,-61.5 0,-61.5"/>
<text text-anchor="start" x="8" y="-79.5" font-family="Helvetica,sans-Serif" font-size="10.00">std::basic_string&lt;</text>
<text text-anchor="middle" x="52" y="-68.5" font-family="Helvetica,sans-Serif" font-size="10.00"> Char &gt;</text>
</a>
</g>
</g>
<!-- Node7&#45;&gt;Node6 -->
<g id="edge6" class="edge">
<title>Node7&#45;&gt;Node6</title>
<path fill="none" stroke="midnightblue" d="M114.62,-76.5C135.88,-76.5 158.82,-76.5 176.7,-76.5"/>
<polygon fill="midnightblue" stroke="midnightblue" points="114.35,-73 104.35,-76.5 114.35,-80 114.35,-73"/>
</g>
<!-- Node8 -->
<g id="node8" class="node">
<title>Node8</title>
<g id="a_node8"><a xlink:href="classresolvents__manager.html" target="_top" xlink:title="class to manage resolvents">
<polygon fill="white" stroke="black" points="151.5,-29 151.5,-48 267.5,-48 267.5,-29 151.5,-29"/>
<text text-anchor="middle" x="209.5" y="-36" font-family="Helvetica,sans-Serif" font-size="10.00">resolvents_manager</text>
</a>
</g>
</g>
<!-- Node8&#45;&gt;Node5 -->
<g id="edge7" class="edge">
<title>Node8&#45;&gt;Node5</title>
<path fill="none" stroke="#9a32cd" stroke-dasharray="5,2" d="M277.62,-43.66C315.89,-46.84 364.69,-51.31 408,-56.5 420.12,-57.95 433.09,-59.74 445.4,-61.54"/>
<polygon fill="#9a32cd" stroke="#9a32cd" points="277.89,-40.17 267.63,-42.84 277.31,-47.15 277.89,-40.17"/>
<text text-anchor="middle" x="352" y="-59.5" font-family="Helvetica,sans-Serif" font-size="10.00"> resolvents</text>
</g>
<!-- Node9 -->
<g id="node9" class="node">
<title>Node9</title>
<g id="a_node9"><a xlink:href="classexponential__acceptance__probability.html" target="_top" xlink:title="compute an acceptance probability used by the metropolis hastings algorithm">
<polygon fill="white" stroke="black" points="435.5,-0.5 435.5,-30.5 570.5,-30.5 570.5,-0.5 435.5,-0.5"/>
<text text-anchor="start" x="443.5" y="-18.5" font-family="Helvetica,sans-Serif" font-size="10.00">exponential_acceptance</text>
<text text-anchor="middle" x="503" y="-7.5" font-family="Helvetica,sans-Serif" font-size="10.00">_probability&lt; prec_t &gt;</text>
</a>
</g>
</g>
<!-- Node9&#45;&gt;Node1 -->
<g id="edge8" class="edge">
<title>Node9&#45;&gt;Node1</title>
<path fill="none" stroke="#9a32cd" stroke-dasharray="5,2" d="M575.97,-33.1C613.78,-42.85 660.72,-55.77 702,-69.5 707.86,-71.45 713.85,-73.53 719.87,-75.7"/>
<polygon fill="#9a32cd" stroke="#9a32cd" points="576.62,-29.65 566.06,-30.56 574.88,-36.43 576.62,-29.65"/>
<text text-anchor="middle" x="650" y="-72.5" font-family="Helvetica,sans-Serif" font-size="10.00"> acc_prob_fct</text>
</g>
</g>
</svg>
        <g id="navigator" transform="translate(0 0)" fill="#404254">
                <rect fill="#f2f5e9" fill-opacity="0.5" stroke="#606060" stroke-width=".5" x="0" y="0" width="60" height="60"/>
                <use id="zoomplus" xlink:href="#zoomPlus" x="17" y="9" onmousedown="handleZoom(evt,'in')"/>
                <use id="zoomminus" xlink:href="#zoomMin" x="42" y="9" onmousedown="handleZoom(evt,'out')"/>
                <use id="reset" xlink:href="#resetDef" x="30" y="36" onmousedown="handleReset()"/>
                <g id="arrowUp" xlink:href="#dirArrow" transform="translate(30 24)" onmousedown="handlePan(0,-1)">
                  <use xlink:href="#rim" fill="#404040">
                        <set attributeName="fill" to="#808080" begin="arrowUp.mouseover" end="arrowUp.mouseout"/>
                  </use>
                  <path fill="none" stroke="white" stroke-width="1.5" d="M0,-3.0v7 M-2.5,-0.5L0,-3.0L2.5,-0.5"/>
                </g>
                <g id="arrowRight" xlink:href="#dirArrow" transform="rotate(90) translate(36 -43)" onmousedown="handlePan(1,0)">
                  <use xlink:href="#rim" fill="#404040">
                        <set attributeName="fill" to="#808080" begin="arrowRight.mouseover" end="arrowRight.mouseout"/>
                  </use>
                  <path fill="none" stroke="white" stroke-width="1.5" d="M0,-3.0v7 M-2.5,-0.5L0,-3.0L2.5,-0.5"/>
                </g>
                <g id="arrowDown" xlink:href="#dirArrow" transform="rotate(180) translate(-30 -48)" onmousedown="handlePan(0,1)">
                  <use xlink:href="#rim" fill="#404040">
                        <set attributeName="fill" to="#808080" begin="arrowDown.mouseover" end="arrowDown.mouseout"/>
                  </use>
                  <path fill="none" stroke="white" stroke-width="1.5" d="M0,-3.0v7 M-2.5,-0.5L0,-3.0L2.5,-0.5"/>
                </g>
                <g id="arrowLeft" xlink:href="#dirArrow" transform="rotate(270) translate(-36 17)" onmousedown="handlePan(-1,0)">
                  <use xlink:href="#rim" fill="#404040">
                        <set attributeName="fill" to="#808080" begin="arrowLeft.mouseover" end="arrowLeft.mouseout"/>
                  </use>
                  <path fill="none" stroke="white" stroke-width="1.5" d="M0,-3.0v7 M-2.5,-0.5L0,-3.0L2.5,-0.5"/>
                </g>
        </g>
        <svg viewBox="0 0 15 15" width="100%" height="30px" preserveAspectRatio="xMaxYMin meet">
         <g id="arrow_out" transform="scale(0.3 0.3)">
          <a xlink:href="classmetropolis__hastings__algorithm__coll__graph_org.svg" target="_base">
           <rect id="button" ry="5" rx="5" y="6" x="6" height="38" width="38"
                fill="#f2f5e9" fill-opacity="0.5" stroke="#606060" stroke-width="1.0"/>
           <path id="arrow"
             d="M 11.500037,31.436501 C 11.940474,20.09759 22.043105,11.32322 32.158766,21.979434 L 37.068811,17.246167 C 37.068811,17.246167 37.088388,32 37.088388,32 L 22.160133,31.978069 C 22.160133,31.978069 26.997745,27.140456 26.997745,27.140456 C 18.528582,18.264221 13.291696,25.230495 11.500037,31.436501 z"
             style="fill:#404040;"/>
          </a>
         </g>
        </svg>
</svg>
