<?xml version="1.0" encoding="UTF-8" standalone="no"?>
<!DOCTYPE svg PUBLIC "-//W3C//DTD SVG 1.1//EN"
 "http://www.w3.org/Graphics/SVG/1.1/DTD/svg11.dtd">
<!-- Generated by graphviz version 5.0.0 (0)
 -->
<!-- Title: multiway_partitioning::iterate Pages: 1 -->
<svg width="323pt" height="88pt"
 viewBox="0.00 0.00 323.00 88.00" xmlns="http://www.w3.org/2000/svg" xmlns:xlink="http://www.w3.org/1999/xlink">
<g id="graph0" class="graph" transform="scale(1 1) rotate(0) translate(4 84)">
<title>multiway_partitioning::iterate</title>
<polygon fill="white" stroke="transparent" points="-4,4 -4,-84 319,-84 319,4 -4,4"/>
<!-- Node1 -->
<g id="node1" class="node">
<title>Node1</title>
<g id="a_node1"><a xlink:title="execute one step of the largest differencing method">
<polygon fill="#bfbfbf" stroke="black" points="0,-24.5 0,-54.5 124,-54.5 124,-24.5 0,-24.5"/>
<text text-anchor="start" x="8" y="-42.5" font-family="Helvetica,sans-Serif" font-size="10.00">multiway_partitioning</text>
<text text-anchor="middle" x="62" y="-31.5" font-family="Helvetica,sans-Serif" font-size="10.00">::iterate</text>
</a>
</g>
</g>
<!-- Node2 -->
<g id="node2" class="node">
<title>Node2</title>
<g id="a_node2"><a xlink:href="classmultiway__partitioning.html#a6a3c0f9fdc3dde72d4e10a38de711325" target="_top" xlink:title="returns true if only one partition is left">
<polygon fill="white" stroke="black" points="175.5,-49.5 175.5,-79.5 299.5,-79.5 299.5,-49.5 175.5,-49.5"/>
<text text-anchor="start" x="183.5" y="-67.5" font-family="Helvetica,sans-Serif" font-size="10.00">multiway_partitioning</text>
<text text-anchor="middle" x="237.5" y="-56.5" font-family="Helvetica,sans-Serif" font-size="10.00">::is_finished</text>
</a>
</g>
</g>
<!-- Node1&#45;&gt;Node2 -->
<g id="edge1" class="edge">
<title>Node1&#45;&gt;Node2</title>
<path fill="none" stroke="midnightblue" d="M124.17,-48.31C137.39,-50.22 151.47,-52.25 165.04,-54.2"/>
<polygon fill="midnightblue" stroke="midnightblue" points="164.9,-57.72 175.3,-55.68 165.9,-50.79 164.9,-57.72"/>
</g>
<!-- Node3 -->
<g id="node3" class="node">
<title>Node3</title>
<g id="a_node3"><a xlink:href="structmultiway__partitioning_1_1partitioning__t.html#ad0812145a00a8b64a236e3227f7a7231" target="_top" xlink:title="merge two partitions">
<polygon fill="white" stroke="black" points="160,-0.5 160,-30.5 315,-30.5 315,-0.5 160,-0.5"/>
<text text-anchor="start" x="168" y="-18.5" font-family="Helvetica,sans-Serif" font-size="10.00">multiway_partitioning</text>
<text text-anchor="middle" x="237.5" y="-7.5" font-family="Helvetica,sans-Serif" font-size="10.00">::partitioning_t::merge_parts</text>
</a>
</g>
</g>
<!-- Node1&#45;&gt;Node3 -->
<g id="edge2" class="edge">
<title>Node1&#45;&gt;Node3</title>
<path fill="none" stroke="midnightblue" d="M124.17,-31.04C132.44,-29.89 141.06,-28.7 149.68,-27.51"/>
<polygon fill="midnightblue" stroke="midnightblue" points="150.34,-30.95 159.77,-26.11 149.39,-24.02 150.34,-30.95"/>
</g>
</g>
</svg>
