<?xml version="1.0" encoding="UTF-8" standalone="no"?>
<!DOCTYPE svg PUBLIC "-//W3C//DTD SVG 1.1//EN"
 "http://www.w3.org/Graphics/SVG/1.1/DTD/svg11.dtd">
<!-- Generated by graphviz version 5.0.0 (0)
 -->
<!-- Title: statistical_acceptance_computation::finish_computation Pages: 1 -->
<svg width="534pt" height="39pt"
 viewBox="0.00 0.00 534.00 39.00" xmlns="http://www.w3.org/2000/svg" xmlns:xlink="http://www.w3.org/1999/xlink">
<g id="graph0" class="graph" transform="scale(1 1) rotate(0) translate(4 35)">
<title>statistical_acceptance_computation::finish_computation</title>
<polygon fill="white" stroke="transparent" points="-4,4 -4,-35 530,-35 530,4 -4,4"/>
<!-- Node1 -->
<g id="node1" class="node">
<title>Node1</title>
<g id="a_node1"><a xlink:title="get result of wheter to accept the new state">
<polygon fill="#bfbfbf" stroke="black" points="344,-0.5 344,-30.5 526,-30.5 526,-0.5 344,-0.5"/>
<text text-anchor="start" x="352" y="-18.5" font-family="Helvetica,sans-Serif" font-size="10.00">statistical_acceptance</text>
<text text-anchor="middle" x="435" y="-7.5" font-family="Helvetica,sans-Serif" font-size="10.00">_computation::finish_computation</text>
</a>
</g>
</g>
<!-- Node2 -->
<g id="node2" class="node">
<title>Node2</title>
<g id="a_node2"><a xlink:href="classmetropolis__hastings__algorithm.html#ac855cda69eded775e9d77f3a735b136f" target="_top" xlink:title="finish an iteration">
<polygon fill="white" stroke="black" points="160,-0.5 160,-30.5 308,-30.5 308,-0.5 160,-0.5"/>
<text text-anchor="start" x="168" y="-18.5" font-family="Helvetica,sans-Serif" font-size="10.00">metropolis_hastings</text>
<text text-anchor="middle" x="234" y="-7.5" font-family="Helvetica,sans-Serif" font-size="10.00">_algorithm::finish_iteration</text>
</a>
</g>
</g>
<!-- Node1&#45;&gt;Node2 -->
<g id="edge1" class="edge">
<title>Node1&#45;&gt;Node2</title>
<path fill="none" stroke="midnightblue" d="M333.72,-15.5C325.12,-15.5 316.52,-15.5 308.18,-15.5"/>
<polygon fill="midnightblue" stroke="midnightblue" points="333.82,-19 343.82,-15.5 333.82,-12 333.82,-19"/>
</g>
<!-- Node3 -->
<g id="node3" class="node">
<title>Node3</title>
<g id="a_node3"><a xlink:href="classmetropolis__hastings__algorithm.html#a376e17d9b18cbb66546d57bbf1912e4f" target="_top" xlink:title="automate iteration calls to make progress">
<polygon fill="white" stroke="black" points="0,-0.5 0,-30.5 124,-30.5 124,-0.5 0,-0.5"/>
<text text-anchor="start" x="8" y="-18.5" font-family="Helvetica,sans-Serif" font-size="10.00">metropolis_hastings</text>
<text text-anchor="middle" x="62" y="-7.5" font-family="Helvetica,sans-Serif" font-size="10.00">_algorithm::operator()</text>
</a>
</g>
</g>
<!-- Node2&#45;&gt;Node3 -->
<g id="edge2" class="edge">
<title>Node2&#45;&gt;Node3</title>
<path fill="none" stroke="midnightblue" d="M149.76,-15.5C141.09,-15.5 132.39,-15.5 124.02,-15.5"/>
<polygon fill="midnightblue" stroke="midnightblue" points="149.92,-19 159.92,-15.5 149.92,-12 149.92,-19"/>
</g>
</g>
</svg>
