<?xml version="1.0" encoding="UTF-8" standalone="no"?>
<!DOCTYPE svg PUBLIC "-//W3C//DTD SVG 1.1//EN"
 "http://www.w3.org/Graphics/SVG/1.1/DTD/svg11.dtd">
<!-- Generated by graphviz version 5.0.0 (0)
 -->
<!-- Title: rpc_message&lt; data_t &gt; Pages: 1 -->
<svg width="236pt" height="163pt"
 viewBox="0.00 0.00 235.50 163.00" xmlns="http://www.w3.org/2000/svg" xmlns:xlink="http://www.w3.org/1999/xlink">
<g id="graph0" class="graph" transform="scale(1 1) rotate(0) translate(4 159)">
<title>rpc_message&lt; data_t &gt;</title>
<polygon fill="white" stroke="transparent" points="-4,4 -4,-159 231.5,-159 231.5,4 -4,4"/>
<!-- Node1 -->
<g id="node1" class="node">
<title>Node1</title>
<g id="a_node1"><a xlink:title="message to code a (remote) procedure call">
<polygon fill="#bfbfbf" stroke="black" points="48,-0.5 48,-19.5 182,-19.5 182,-0.5 48,-0.5"/>
<text text-anchor="middle" x="115" y="-7.5" font-family="Helvetica,sans-Serif" font-size="10.00">rpc_message&lt; data_t &gt;</text>
</a>
</g>
</g>
<!-- Node2 -->
<g id="node2" class="node">
<title>Node2</title>
<g id="a_node2"><a xlink:title=" ">
<polygon fill="white" stroke="#bfbfbf" points="19.5,-67.5 19.5,-86.5 84.5,-86.5 84.5,-67.5 19.5,-67.5"/>
<text text-anchor="middle" x="52" y="-74.5" font-family="Helvetica,sans-Serif" font-size="10.00">std::string</text>
</a>
</g>
</g>
<!-- Node2&#45;&gt;Node1 -->
<g id="edge1" class="edge">
<title>Node2&#45;&gt;Node1</title>
<path fill="none" stroke="#9a32cd" stroke-dasharray="5,2" d="M52.06,-57.04C52.92,-50.47 54.88,-43.4 59,-38 65.42,-29.59 75.13,-23.66 84.67,-19.55"/>
<polygon fill="#9a32cd" stroke="#9a32cd" points="48.56,-57.07 51.47,-67.26 55.55,-57.48 48.56,-57.07"/>
<text text-anchor="middle" x="97" y="-41" font-family="Helvetica,sans-Serif" font-size="10.00"> function_name</text>
</g>
<!-- Node3 -->
<g id="node3" class="node">
<title>Node3</title>
<g id="a_node3"><a xlink:title=" ">
<polygon fill="white" stroke="#bfbfbf" points="0,-124.5 0,-154.5 104,-154.5 104,-124.5 0,-124.5"/>
<text text-anchor="start" x="8" y="-142.5" font-family="Helvetica,sans-Serif" font-size="10.00">std::basic_string&lt;</text>
<text text-anchor="middle" x="52" y="-131.5" font-family="Helvetica,sans-Serif" font-size="10.00"> Char &gt;</text>
</a>
</g>
</g>
<!-- Node3&#45;&gt;Node2 -->
<g id="edge2" class="edge">
<title>Node3&#45;&gt;Node2</title>
<path fill="none" stroke="midnightblue" d="M52,-114.35C52,-104.51 52,-93.78 52,-86.54"/>
<polygon fill="midnightblue" stroke="midnightblue" points="48.5,-114.47 52,-124.47 55.5,-114.47 48.5,-114.47"/>
</g>
<!-- Node4 -->
<g id="node4" class="node">
<title>Node4</title>
<g id="a_node4"><a xlink:title=" ">
<polygon fill="white" stroke="#bfbfbf" points="102.5,-67.5 102.5,-86.5 227.5,-86.5 227.5,-67.5 102.5,-67.5"/>
<text text-anchor="middle" x="165" y="-74.5" font-family="Helvetica,sans-Serif" font-size="10.00">std::vector&lt; uint8_t &gt;</text>
</a>
</g>
</g>
<!-- Node4&#45;&gt;Node1 -->
<g id="edge3" class="edge">
<title>Node4&#45;&gt;Node1</title>
<path fill="none" stroke="#9a32cd" stroke-dasharray="5,2" d="M153.73,-58.55C149.32,-51.97 144.09,-44.52 139,-38 134.06,-31.67 128.06,-24.92 123.29,-19.76"/>
<polygon fill="#9a32cd" stroke="#9a32cd" points="151.09,-60.9 159.52,-67.33 156.94,-57.05 151.09,-60.9"/>
<text text-anchor="middle" x="158.5" y="-41" font-family="Helvetica,sans-Serif" font-size="10.00"> data</text>
</g>
</g>
</svg>
