<?xml version="1.0" encoding="UTF-8" standalone="no"?>
<!DOCTYPE svg PUBLIC "-//W3C//DTD SVG 1.1//EN"
 "http://www.w3.org/Graphics/SVG/1.1/DTD/svg11.dtd">
<!-- Generated by graphviz version 5.0.0 (0)
 -->
<!-- Title: Graphical Class Hierarchy Pages: 1 -->
<svg width="253pt" height="66pt"
 viewBox="0.00 0.00 253.00 66.00" xmlns="http://www.w3.org/2000/svg" xmlns:xlink="http://www.w3.org/1999/xlink">
<g id="graph0" class="graph" transform="scale(1 1) rotate(0) translate(4 62)">
<title>Graphical Class Hierarchy</title>
<polygon fill="white" stroke="transparent" points="-4,4 -4,-62 249,-62 249,4 -4,4"/>
<!-- Node0 -->
<g id="node1" class="node">
<title>Node0</title>
<g id="a_node1"><a xlink:href="classasync__comm.html" target="_top" xlink:title="base helper class for async MPI communcation">
<polygon fill="white" stroke="black" points="0,-19.5 0,-38.5 81,-38.5 81,-19.5 0,-19.5"/>
<text text-anchor="middle" x="40.5" y="-26.5" font-family="Helvetica,sans-Serif" font-size="10.00">async_comm</text>
</a>
</g>
</g>
<!-- Node1 -->
<g id="node2" class="node">
<title>Node1</title>
<g id="a_node2"><a xlink:href="classasync__comm__out.html" target="_top" xlink:title="derived helper class providing async message sending">
<polygon fill="white" stroke="black" points="130,-38.5 130,-57.5 232,-57.5 232,-38.5 130,-38.5"/>
<text text-anchor="middle" x="181" y="-45.5" font-family="Helvetica,sans-Serif" font-size="10.00">async_comm_out</text>
</a>
</g>
</g>
<!-- Node0&#45;&gt;Node1 -->
<g id="edge1" class="edge">
<title>Node0&#45;&gt;Node1</title>
<path fill="none" stroke="midnightblue" d="M91.45,-35.85C103.97,-37.57 117.41,-39.41 129.93,-41.13"/>
<polygon fill="midnightblue" stroke="midnightblue" points="91.57,-32.34 81.19,-34.44 90.62,-39.27 91.57,-32.34"/>
</g>
<!-- Node2 -->
<g id="node3" class="node">
<title>Node2</title>
<g id="a_node3"><a xlink:href="classfake__async__comm__out.html" target="_top" xlink:title="derived helper class for synchronous messaging (debug communication)">
<polygon fill="white" stroke="black" points="117,-0.5 117,-19.5 245,-19.5 245,-0.5 117,-0.5"/>
<text text-anchor="middle" x="181" y="-7.5" font-family="Helvetica,sans-Serif" font-size="10.00">fake_async_comm_out</text>
</a>
</g>
</g>
<!-- Node0&#45;&gt;Node2 -->
<g id="edge2" class="edge">
<title>Node0&#45;&gt;Node2</title>
<path fill="none" stroke="midnightblue" d="M91.1,-22.2C99.42,-21.05 108.16,-19.86 116.77,-18.67"/>
<polygon fill="midnightblue" stroke="midnightblue" points="90.62,-18.73 81.19,-23.56 91.57,-25.66 90.62,-18.73"/>
</g>
</g>
</svg>
