<?xml version="1.0" encoding="UTF-8" standalone="no"?>
<!DOCTYPE svg PUBLIC "-//W3C//DTD SVG 1.1//EN"
 "http://www.w3.org/Graphics/SVG/1.1/DTD/svg11.dtd">
<!-- Generated by graphviz version 5.0.0 (0)
 -->
<!-- Title: probsat_resolvents&lt; cfg_vector_t, prec_t, use_bitfield &gt;::prepared_computation Pages: 1 -->
<svg width="157pt" height="263pt"
 viewBox="0.00 0.00 157.00 263.00" xmlns="http://www.w3.org/2000/svg" xmlns:xlink="http://www.w3.org/1999/xlink">
<g id="graph0" class="graph" transform="scale(1 1) rotate(0) translate(4 259)">
<title>probsat_resolvents&lt; cfg_vector_t, prec_t, use_bitfield &gt;::prepared_computation</title>
<polygon fill="white" stroke="transparent" points="-4,4 -4,-259 153,-259 153,4 -4,4"/>
<!-- Node1 -->
<g id="node1" class="node">
<title>Node1</title>
<g id="a_node1"><a xlink:title="represents a prepared probsat computation for a given configuration">
<polygon fill="#bfbfbf" stroke="black" points="0,-0.5 0,-52.5 149,-52.5 149,-0.5 0,-0.5"/>
<text text-anchor="start" x="8" y="-40.5" font-family="Helvetica,sans-Serif" font-size="10.00">probsat_resolvents</text>
<text text-anchor="start" x="8" y="-29.5" font-family="Helvetica,sans-Serif" font-size="10.00">&lt; cfg_vector_t, prec</text>
<text text-anchor="start" x="8" y="-18.5" font-family="Helvetica,sans-Serif" font-size="10.00">_t, use_bitfield &gt;::prepared</text>
<text text-anchor="middle" x="74.5" y="-7.5" font-family="Helvetica,sans-Serif" font-size="10.00">_computation</text>
</a>
</g>
</g>
<!-- Node2 -->
<g id="node2" class="node">
<title>Node2</title>
<g id="a_node2"><a xlink:href="classshared__tmpfile.html" target="_top" xlink:title="temporary file implementation">
<polygon fill="white" stroke="black" points="30,-100.5 30,-119.5 119,-119.5 119,-100.5 30,-100.5"/>
<text text-anchor="middle" x="74.5" y="-107.5" font-family="Helvetica,sans-Serif" font-size="10.00">shared_tmpfile</text>
</a>
</g>
</g>
<!-- Node2&#45;&gt;Node1 -->
<g id="edge1" class="edge">
<title>Node2&#45;&gt;Node1</title>
<path fill="none" stroke="#9a32cd" stroke-dasharray="5,2" d="M74.5,-90.04C74.5,-78.94 74.5,-64.8 74.5,-52.76"/>
<polygon fill="#9a32cd" stroke="#9a32cd" points="71,-90.28 74.5,-100.28 78,-90.28 71,-90.28"/>
<text text-anchor="middle" x="96" y="-74" font-family="Helvetica,sans-Serif" font-size="10.00"> stmpfile</text>
</g>
<!-- Node3 -->
<g id="node3" class="node">
<title>Node3</title>
<g id="a_node3"><a xlink:title=" ">
<polygon fill="white" stroke="#bfbfbf" points="42,-167.5 42,-186.5 107,-186.5 107,-167.5 42,-167.5"/>
<text text-anchor="middle" x="74.5" y="-174.5" font-family="Helvetica,sans-Serif" font-size="10.00">std::string</text>
</a>
</g>
</g>
<!-- Node3&#45;&gt;Node2 -->
<g id="edge2" class="edge">
<title>Node3&#45;&gt;Node2</title>
<path fill="none" stroke="#9a32cd" stroke-dasharray="5,2" d="M74.5,-157.04C74.5,-144.67 74.5,-129.12 74.5,-119.63"/>
<polygon fill="#9a32cd" stroke="#9a32cd" points="71,-157.23 74.5,-167.23 78,-157.23 71,-157.23"/>
<text text-anchor="middle" x="92" y="-141" font-family="Helvetica,sans-Serif" font-size="10.00"> fname</text>
</g>
<!-- Node4 -->
<g id="node4" class="node">
<title>Node4</title>
<g id="a_node4"><a xlink:title=" ">
<polygon fill="white" stroke="#bfbfbf" points="22.5,-224.5 22.5,-254.5 126.5,-254.5 126.5,-224.5 22.5,-224.5"/>
<text text-anchor="start" x="30.5" y="-242.5" font-family="Helvetica,sans-Serif" font-size="10.00">std::basic_string&lt;</text>
<text text-anchor="middle" x="74.5" y="-231.5" font-family="Helvetica,sans-Serif" font-size="10.00"> Char &gt;</text>
</a>
</g>
</g>
<!-- Node4&#45;&gt;Node3 -->
<g id="edge3" class="edge">
<title>Node4&#45;&gt;Node3</title>
<path fill="none" stroke="midnightblue" d="M74.5,-214.35C74.5,-204.51 74.5,-193.78 74.5,-186.54"/>
<polygon fill="midnightblue" stroke="midnightblue" points="71,-214.47 74.5,-224.47 78,-214.47 71,-214.47"/>
</g>
</g>
</svg>
