<?xml version='1.0' encoding='UTF-8' standalone='no'?>
<svg viewBox="0 0 418 314" xmlns:xlink="http://www.w3.org/1999/xlink" xmlns="http://www.w3.org/2000/svg" width="418pt" height="314pt">
 <title>Figure 1</title>
 <desc>
Creator: GL2PS 1.4.2, (C) 1999-2020 C. Geuzaine
For: Octave
CreationDate: Tue Aug 16 09:42:49 2022
</desc>
 <defs/>
 <polygon fill="#ffffff" points="0,0 418,0 418,314 0,314"/>
 <g>
  <polygon fill="#ffffff" shape-rendering="crispEdges" points="0,314 418,314 418,0 0,0"/>
  <clipPath id="cp00418314">
   <polygon points="0,314 418,314 418,0 0,0"/>
  </clipPath>
  <g clip-path="url(#cp00418314)">
   <polygon fill="#ffffff" shape-rendering="crispEdges" points="54.4341,266.063 378.946,266.063 378.946,23.5532 54.4341,23.5532"/>
   <polyline stroke="#262626" stroke-width="0.5" fill="none" stroke-linejoin="miter" stroke-linecap="butt" points="54.4341,266.063 54.4341,262.825"/>
   <polyline stroke="#262626" stroke-width="0.5" fill="none" stroke-linejoin="miter" stroke-linecap="butt" points="119.337,266.063 119.337,262.825"/>
   <polyline stroke="#262626" stroke-width="0.5" fill="none" stroke-linejoin="miter" stroke-linecap="butt" points="184.239,266.063 184.239,262.825"/>
   <polyline stroke="#262626" stroke-width="0.5" fill="none" stroke-linejoin="miter" stroke-linecap="butt" points="249.142,266.063 249.142,262.825"/>
   <polyline stroke="#262626" stroke-width="0.5" fill="none" stroke-linejoin="miter" stroke-linecap="butt" points="314.044,266.063 314.044,262.825"/>
   <polyline stroke="#262626" stroke-width="0.5" fill="none" stroke-linejoin="miter" stroke-linecap="butt" points="378.946,266.063 378.946,262.825"/>
   <g font-weight="normal" transform="translate(49.9343,291.039) rotate(-0,4.5,-13)" xml:space="preserve" font-style="normal" font-family="FreeSans" font-size="16">
    <text fill="rgb(38,38,38)" x="0 " y="-0">0</text>
   </g>
   <g font-weight="normal" transform="translate(110.337,291.039) rotate(-0,9,-13)" xml:space="preserve" font-style="normal" font-family="FreeSans" font-size="16">
    <text fill="rgb(38,38,38)" x="0 9 " y="-0">20</text>
   </g>
   <g font-weight="normal" transform="translate(175.239,291.039) rotate(-0,9,-13)" xml:space="preserve" font-style="normal" font-family="FreeSans" font-size="16">
    <text fill="rgb(38,38,38)" x="0 9 " y="-0">40</text>
   </g>
   <g font-weight="normal" transform="translate(240.142,291.039) rotate(-0,9,-13)" xml:space="preserve" font-style="normal" font-family="FreeSans" font-size="16">
    <text fill="rgb(38,38,38)" x="0 9 " y="-0">60</text>
   </g>
   <g font-weight="normal" transform="translate(305.044,291.039) rotate(-0,9,-13)" xml:space="preserve" font-style="normal" font-family="FreeSans" font-size="16">
    <text fill="rgb(38,38,38)" x="0 9 " y="-0">80</text>
   </g>
   <g font-weight="normal" transform="translate(365.446,291.039) rotate(-0,13.5,-13)" xml:space="preserve" font-style="normal" font-family="FreeSans" font-size="16">
    <text fill="rgb(38,38,38)" x="0 9 18 " y="-0">100</text>
   </g>
   <polyline stroke="#262626" stroke-width="0.5" fill="none" stroke-linejoin="miter" stroke-linecap="butt" points="54.4341,266.063 57.6743,266.063"/>
   <polyline stroke="#262626" stroke-width="0.5" fill="none" stroke-linejoin="miter" stroke-linecap="butt" points="54.4341,217.561 57.6743,217.561"/>
   <polyline stroke="#262626" stroke-width="0.5" fill="none" stroke-linejoin="miter" stroke-linecap="butt" points="54.4341,169.059 57.6743,169.059"/>
   <polyline stroke="#262626" stroke-width="0.5" fill="none" stroke-linejoin="miter" stroke-linecap="butt" points="54.4341,120.557 57.6743,120.557"/>
   <polyline stroke="#262626" stroke-width="0.5" fill="none" stroke-linejoin="miter" stroke-linecap="butt" points="54.4341,72.0552 57.6743,72.0552"/>
   <polyline stroke="#262626" stroke-width="0.5" fill="none" stroke-linejoin="miter" stroke-linecap="butt" points="54.4341,23.5532 57.6743,23.5532"/>
   <g font-weight="normal" transform="translate(37.4463,272.563) rotate(-0,9,-6.5)" xml:space="preserve" font-style="normal" font-family="FreeSans" font-size="16">
    <text fill="rgb(38,38,38)" x="0 " y="-0">0</text>
   </g>
   <g font-weight="normal" transform="translate(24.4463,224.061) rotate(-0,22,-6.5)" xml:space="preserve" font-style="normal" font-family="FreeSans" font-size="16">
    <text fill="rgb(38,38,38)" x="0 9 13 " y="-0">0.2</text>
   </g>
   <g font-weight="normal" transform="translate(24.4463,175.559) rotate(-0,22,-6.5)" xml:space="preserve" font-style="normal" font-family="FreeSans" font-size="16">
    <text fill="rgb(38,38,38)" x="0 9 13 " y="-0">0.4</text>
   </g>
   <g font-weight="normal" transform="translate(24.4463,127.057) rotate(-0,22,-6.5)" xml:space="preserve" font-style="normal" font-family="FreeSans" font-size="16">
    <text fill="rgb(38,38,38)" x="0 9 13 " y="-0">0.6</text>
   </g>
   <g font-weight="normal" transform="translate(24.4463,78.5553) rotate(-0,22,-6.5)" xml:space="preserve" font-style="normal" font-family="FreeSans" font-size="16">
    <text fill="rgb(38,38,38)" x="0 9 13 " y="-0">0.8</text>
   </g>
   <g font-weight="normal" transform="translate(37.4463,30.0533) rotate(-0,9,-6.5)" xml:space="preserve" font-style="normal" font-family="FreeSans" font-size="16">
    <text fill="rgb(38,38,38)" x="0 " y="-0">1</text>
   </g>
   <polyline stroke="#262626" stroke-width="0.5" fill="none" stroke-linejoin="miter" stroke-dasharray="16,0" stroke-linecap="square" points="54.4341,266.063 378.946,266.063"/>
   <polyline stroke="#262626" stroke-width="0.5" fill="none" stroke-linejoin="miter" stroke-dasharray="16,0" stroke-linecap="square" points="54.4341,266.063 54.4341,23.5532"/>
   <g font-weight="normal" transform="translate(115.19,314.039) rotate(-0,101.5,-18)" xml:space="preserve" font-style="normal" font-family="FreeSans" font-size="17.6">
    <text fill="rgb(38,38,38)" x="0 10 19 24 28 37 41 46 50 59 68 72 78 88 97 107 116 120 125 129 138 148 162 172 176 185 189 193 " y="-4">definition range / sample id</text>
   </g>
   <polyline stroke="#0071bc" stroke-width="0.5" fill="none" stroke-linejoin="round" stroke-linecap="butt" points="57.6792,266.063 60.9243,198.853 64.1694,168.897 67.4146,155.545 70.6597,149.594 73.9048,146.941 77.1499,145.759 80.395,145.232 83.6406,144.997 86.8857,144.893 90.1309,144.846 93.376,144.825 96.6211,144.816 99.8662,144.812 103.111,144.81 106.356,144.809 109.602,144.809 112.847,144.809 116.092,144.808 119.337,144.808 122.582,144.808 125.827,144.808 129.072,144.808 132.317,144.808 135.562,144.808 138.808,144.808 142.053,144.808 145.298,144.808 148.543,144.808 151.788,144.808 155.033,144.808 158.278,144.808 161.523,144.808 164.769,144.808 168.014,144.808 171.259,144.808 174.504,144.808 177.749,144.808 180.994,144.808 184.239,144.808 187.484,144.808 190.729,144.808 193.975,144.808 197.22,144.808 200.465,144.808 203.71,144.808 206.955,144.808 210.2,144.808 213.445,144.808 216.69,144.808 219.936,144.808 223.181,144.808 226.426,144.808 229.671,144.808 232.916,144.808 236.161,144.808 239.406,144.808 242.651,144.808 245.896,144.808 249.142,144.808 252.387,144.808 255.632,144.808 258.877,144.808 262.122,144.808 265.367,144.808 268.612,144.808 271.857,144.808 275.103,144.808 278.348,144.808 281.593,144.808 284.838,144.808 288.083,144.808 291.328,144.808 294.573,144.808 297.818,144.808 301.063,144.808 304.309,144.808 307.554,144.808 310.799,144.808 314.044,144.808 317.289,144.808 320.534,144.808 323.779,144.808 327.024,144.808 330.27,144.808 333.515,144.807 336.76,144.805 340.005,144.801 343.25,144.792 346.495,144.771 349.74,144.724 352.985,144.62 356.23,144.385 359.476,143.857 362.721,142.675 365.966,140.023 369.211,134.072 372.456,120.72 375.701,90.7632 378.946,23.5532"/>
   <polyline stroke="#d85218" stroke-width="0.5" fill="none" stroke-linejoin="round" stroke-linecap="round" points="60.6792,145.381 60.1064,147.145 58.6064,148.234 56.7524,148.234 55.2524,147.145 54.6792,145.381 55.2524,143.618 56.7524,142.528 58.6064,142.528 60.1064,143.618 60.6792,145.381"/>
   <polyline stroke="#d85218" stroke-width="0.5" fill="none" stroke-linejoin="round" stroke-linecap="round" points="63.9243,144.892 63.3516,146.655 61.8516,147.745 59.9976,147.745 58.4976,146.655 57.9243,144.892 58.4976,143.128 59.9976,142.039 61.8516,142.039 63.3516,143.128 63.9243,144.892"/>
   <polyline stroke="#d85218" stroke-width="0.5" fill="none" stroke-linejoin="round" stroke-linecap="round" points="67.1694,144.89 66.5967,146.654 65.0967,147.744 63.2427,147.744 61.7427,146.654 61.1694,144.89 61.7427,143.127 63.2427,142.037 65.0967,142.037 66.5967,143.127 67.1694,144.89"/>
   <polyline stroke="#d85218" stroke-width="0.5" fill="none" stroke-linejoin="round" stroke-linecap="round" points="70.4146,144.889 69.8418,146.652 68.3418,147.742 66.4878,147.742 64.9878,146.652 64.4146,144.889 64.9878,143.126 66.4878,142.036 68.3418,142.036 69.8418,143.126 70.4146,144.889"/>
   <polyline stroke="#d85218" stroke-width="0.5" fill="none" stroke-linejoin="round" stroke-linecap="round" points="73.6597,144.828 73.0869,146.591 71.5869,147.681 69.7329,147.681 68.2329,146.591 67.6602,144.828 68.2329,143.064 69.7329,141.975 71.5869,141.975 73.0869,143.064 73.6597,144.828"/>
   <polyline stroke="#d85218" stroke-width="0.5" fill="none" stroke-linejoin="round" stroke-linecap="round" points="76.9048,144.822 76.332,146.585 74.832,147.675 72.978,147.675 71.478,146.585 70.9053,144.822 71.478,143.058 72.978,141.969 74.832,141.969 76.332,143.058 76.9048,144.822"/>
   <polyline stroke="#d85218" stroke-width="0.5" fill="none" stroke-linejoin="round" stroke-linecap="round" points="80.1499,144.821 79.5771,146.584 78.0771,147.674 76.2231,147.674 74.7231,146.584 74.1504,144.821 74.7231,143.058 76.2231,141.968 78.0771,141.968 79.5771,143.058 80.1499,144.821"/>
   <polyline stroke="#d85218" stroke-width="0.5" fill="none" stroke-linejoin="round" stroke-linecap="round" points="83.395,144.819 82.8223,146.582 81.3223,147.672 79.4683,147.672 77.9683,146.582 77.3955,144.819 77.9683,143.055 79.4683,141.966 81.3223,141.966 82.8223,143.055 83.395,144.819"/>
   <polyline stroke="#d85218" stroke-width="0.5" fill="none" stroke-linejoin="round" stroke-linecap="round" points="86.6406,144.812 86.0674,146.575 84.5674,147.665 82.7134,147.665 81.2134,146.575 80.6406,144.812 81.2134,143.048 82.7134,141.958 84.5674,141.958 86.0674,143.048 86.6406,144.812"/>
   <polyline stroke="#d85218" stroke-width="0.5" fill="none" stroke-linejoin="round" stroke-linecap="round" points="89.8857,144.809 89.3125,146.573 87.8125,147.663 85.9585,147.663 84.4585,146.573 83.8857,144.809 84.4585,143.046 85.9585,141.956 87.8125,141.956 89.3125,143.046 89.8857,144.809"/>
   <polyline stroke="#d85218" stroke-width="0.5" fill="none" stroke-linejoin="round" stroke-linecap="round" points="93.1309,144.809 92.5576,146.572 91.0576,147.662 89.2036,147.662 87.7036,146.572 87.1309,144.809 87.7036,143.045 89.2036,141.956 91.0576,141.956 92.5576,143.045 93.1309,144.809"/>
   <polyline stroke="#d85218" stroke-width="0.5" fill="none" stroke-linejoin="round" stroke-linecap="round" points="96.376,144.809 95.8027,146.572 94.3027,147.662 92.4487,147.662 90.9487,146.572 90.376,144.809 90.9487,143.045 92.4487,141.955 94.3027,141.955 95.8027,143.045 96.376,144.809"/>
   <polyline stroke="#d85218" stroke-width="0.5" fill="none" stroke-linejoin="round" stroke-linecap="round" points="99.6211,144.809 99.0479,146.572 97.5479,147.662 95.6938,147.662 94.1938,146.572 93.6211,144.809 94.1938,143.045 95.6938,141.955 97.5479,141.955 99.0479,143.045 99.6211,144.809"/>
   <polyline stroke="#d85218" stroke-width="0.5" fill="none" stroke-linejoin="round" stroke-linecap="round" points="102.866,144.808 102.293,146.572 100.793,147.662 98.939,147.662 97.439,146.572 96.8662,144.808 97.439,143.045 98.939,141.955 100.793,141.955 102.293,143.045 102.866,144.808"/>
   <polyline stroke="#d85218" stroke-width="0.5" fill="none" stroke-linejoin="round" stroke-linecap="round" points="106.111,144.808 105.538,146.572 104.038,147.662 102.184,147.662 100.684,146.572 100.111,144.808 100.684,143.045 102.184,141.955 104.038,141.955 105.538,143.045 106.111,144.808"/>
   <polyline stroke="#d85218" stroke-width="0.5" fill="none" stroke-linejoin="round" stroke-linecap="round" points="109.356,144.808 108.783,146.572 107.283,147.662 105.429,147.662 103.929,146.572 103.356,144.808 103.929,143.045 105.429,141.955 107.283,141.955 108.783,143.045 109.356,144.808"/>
   <polyline stroke="#d85218" stroke-width="0.5" fill="none" stroke-linejoin="round" stroke-linecap="round" points="112.602,144.808 112.028,146.572 110.528,147.662 108.674,147.662 107.174,146.572 106.602,144.808 107.174,143.045 108.674,141.955 110.528,141.955 112.028,143.045 112.602,144.808"/>
   <polyline stroke="#d85218" stroke-width="0.5" fill="none" stroke-linejoin="round" stroke-linecap="round" points="115.847,144.808 115.273,146.572 113.773,147.662 111.919,147.662 110.419,146.572 109.847,144.808 110.419,143.045 111.919,141.955 113.773,141.955 115.273,143.045 115.847,144.808"/>
   <polyline stroke="#d85218" stroke-width="0.5" fill="none" stroke-linejoin="round" stroke-linecap="round" points="119.092,144.808 118.519,146.572 117.019,147.662 115.165,147.662 113.665,146.572 113.092,144.808 113.665,143.045 115.165,141.955 117.019,141.955 118.519,143.045 119.092,144.808"/>
   <polyline stroke="#d85218" stroke-width="0.5" fill="none" stroke-linejoin="round" stroke-linecap="round" points="122.337,144.808 121.764,146.572 120.264,147.662 118.41,147.662 116.91,146.572 116.337,144.808 116.91,143.045 118.41,141.955 120.264,141.955 121.764,143.045 122.337,144.808"/>
   <polyline stroke="#d85218" stroke-width="0.5" fill="none" stroke-linejoin="round" stroke-linecap="round" points="125.582,144.808 125.009,146.572 123.509,147.662 121.655,147.662 120.155,146.572 119.582,144.808 120.155,143.045 121.655,141.955 123.509,141.955 125.009,143.045 125.582,144.808"/>
   <polyline stroke="#d85218" stroke-width="0.5" fill="none" stroke-linejoin="round" stroke-linecap="round" points="128.827,144.808 128.254,146.572 126.754,147.662 124.9,147.662 123.4,146.572 122.827,144.808 123.4,143.045 124.9,141.955 126.754,141.955 128.254,143.045 128.827,144.808"/>
   <polyline stroke="#d85218" stroke-width="0.5" fill="none" stroke-linejoin="round" stroke-linecap="round" points="132.072,144.808 131.499,146.572 129.999,147.662 128.145,147.662 126.645,146.572 126.072,144.808 126.645,143.045 128.145,141.955 129.999,141.955 131.499,143.045 132.072,144.808"/>
   <polyline stroke="#d85218" stroke-width="0.5" fill="none" stroke-linejoin="round" stroke-linecap="round" points="135.317,144.808 134.744,146.572 133.244,147.662 131.39,147.662 129.89,146.572 129.317,144.808 129.89,143.045 131.39,141.955 133.244,141.955 134.744,143.045 135.317,144.808"/>
   <polyline stroke="#d85218" stroke-width="0.5" fill="none" stroke-linejoin="round" stroke-linecap="round" points="138.562,144.808 137.989,146.572 136.489,147.662 134.635,147.662 133.135,146.572 132.562,144.808 133.135,143.045 134.635,141.955 136.489,141.955 137.989,143.045 138.562,144.808"/>
   <polyline stroke="#d85218" stroke-width="0.5" fill="none" stroke-linejoin="round" stroke-linecap="round" points="141.808,144.808 141.234,146.572 139.734,147.662 137.88,147.662 136.38,146.572 135.808,144.808 136.38,143.045 137.88,141.955 139.734,141.955 141.234,143.045 141.808,144.808"/>
   <polyline stroke="#d85218" stroke-width="0.5" fill="none" stroke-linejoin="round" stroke-linecap="round" points="145.053,144.808 144.479,146.572 142.979,147.662 141.125,147.662 139.625,146.572 139.053,144.808 139.625,143.045 141.125,141.955 142.979,141.955 144.479,143.045 145.053,144.808"/>
   <polyline stroke="#d85218" stroke-width="0.5" fill="none" stroke-linejoin="round" stroke-linecap="round" points="148.298,144.808 147.725,146.572 146.225,147.662 144.371,147.662 142.871,146.572 142.298,144.808 142.871,143.045 144.371,141.955 146.225,141.955 147.725,143.045 148.298,144.808"/>
   <polyline stroke="#d85218" stroke-width="0.5" fill="none" stroke-linejoin="round" stroke-linecap="round" points="151.543,144.808 150.97,146.572 149.47,147.662 147.616,147.662 146.116,146.572 145.543,144.808 146.116,143.045 147.616,141.955 149.47,141.955 150.97,143.045 151.543,144.808"/>
   <polyline stroke="#d85218" stroke-width="0.5" fill="none" stroke-linejoin="round" stroke-linecap="round" points="154.788,144.808 154.215,146.572 152.715,147.662 150.861,147.662 149.361,146.572 148.788,144.808 149.361,143.045 150.861,141.955 152.715,141.955 154.215,143.045 154.788,144.808"/>
   <polyline stroke="#d85218" stroke-width="0.5" fill="none" stroke-linejoin="round" stroke-linecap="round" points="158.033,144.808 157.46,146.572 155.96,147.662 154.106,147.662 152.606,146.572 152.033,144.808 152.606,143.045 154.106,141.955 155.96,141.955 157.46,143.045 158.033,144.808"/>
   <polyline stroke="#d85218" stroke-width="0.5" fill="none" stroke-linejoin="round" stroke-linecap="round" points="161.278,144.808 160.705,146.572 159.205,147.662 157.351,147.662 155.851,146.572 155.278,144.808 155.851,143.045 157.351,141.955 159.205,141.955 160.705,143.045 161.278,144.808"/>
   <polyline stroke="#d85218" stroke-width="0.5" fill="none" stroke-linejoin="round" stroke-linecap="round" points="164.523,144.808 163.95,146.572 162.45,147.662 160.596,147.662 159.096,146.572 158.523,144.808 159.096,143.045 160.596,141.955 162.45,141.955 163.95,143.045 164.523,144.808"/>
   <polyline stroke="#d85218" stroke-width="0.5" fill="none" stroke-linejoin="round" stroke-linecap="round" points="167.769,144.808 167.195,146.572 165.695,147.662 163.841,147.662 162.341,146.572 161.769,144.808 162.341,143.045 163.841,141.955 165.695,141.955 167.195,143.045 167.769,144.808"/>
   <polyline stroke="#d85218" stroke-width="0.5" fill="none" stroke-linejoin="round" stroke-linecap="round" points="171.014,144.808 170.44,146.572 168.94,147.662 167.086,147.662 165.586,146.572 165.014,144.808 165.586,143.045 167.086,141.955 168.94,141.955 170.44,143.045 171.014,144.808"/>
   <polyline stroke="#d85218" stroke-width="0.5" fill="none" stroke-linejoin="round" stroke-linecap="round" points="174.259,144.808 173.686,146.572 172.186,147.662 170.332,147.662 168.832,146.572 168.259,144.808 168.832,143.045 170.332,141.955 172.186,141.955 173.686,143.045 174.259,144.808"/>
   <polyline stroke="#d85218" stroke-width="0.5" fill="none" stroke-linejoin="round" stroke-linecap="round" points="177.504,144.808 176.931,146.572 175.431,147.662 173.577,147.662 172.077,146.572 171.504,144.808 172.077,143.045 173.577,141.955 175.431,141.955 176.931,143.045 177.504,144.808"/>
   <polyline stroke="#d85218" stroke-width="0.5" fill="none" stroke-linejoin="round" stroke-linecap="round" points="180.749,144.808 180.176,146.572 178.676,147.662 176.822,147.662 175.322,146.572 174.749,144.808 175.322,143.045 176.822,141.955 178.676,141.955 180.176,143.045 180.749,144.808"/>
   <polyline stroke="#d85218" stroke-width="0.5" fill="none" stroke-linejoin="round" stroke-linecap="round" points="183.994,144.808 183.421,146.572 181.921,147.662 180.067,147.662 178.567,146.572 177.994,144.808 178.567,143.045 180.067,141.955 181.921,141.955 183.421,143.045 183.994,144.808"/>
   <polyline stroke="#d85218" stroke-width="0.5" fill="none" stroke-linejoin="round" stroke-linecap="round" points="187.239,144.808 186.666,146.572 185.166,147.662 183.312,147.662 181.812,146.572 181.239,144.808 181.812,143.045 183.312,141.955 185.166,141.955 186.666,143.045 187.239,144.808"/>
   <polyline stroke="#d85218" stroke-width="0.5" fill="none" stroke-linejoin="round" stroke-linecap="round" points="190.484,144.808 189.911,146.572 188.411,147.662 186.557,147.662 185.057,146.572 184.484,144.808 185.057,143.045 186.557,141.955 188.411,141.955 189.911,143.045 190.484,144.808"/>
   <polyline stroke="#d85218" stroke-width="0.5" fill="none" stroke-linejoin="round" stroke-linecap="round" points="193.729,144.808 193.156,146.572 191.656,147.662 189.802,147.662 188.302,146.572 187.729,144.808 188.302,143.045 189.802,141.955 191.656,141.955 193.156,143.045 193.729,144.808"/>
   <polyline stroke="#d85218" stroke-width="0.5" fill="none" stroke-linejoin="round" stroke-linecap="round" points="196.975,144.808 196.401,146.572 194.901,147.662 193.047,147.662 191.547,146.572 190.975,144.808 191.547,143.045 193.047,141.955 194.901,141.955 196.401,143.045 196.975,144.808"/>
   <polyline stroke="#d85218" stroke-width="0.5" fill="none" stroke-linejoin="round" stroke-linecap="round" points="200.22,144.808 199.646,146.572 198.146,147.662 196.292,147.662 194.792,146.572 194.22,144.808 194.792,143.045 196.292,141.955 198.146,141.955 199.646,143.045 200.22,144.808"/>
   <polyline stroke="#d85218" stroke-width="0.5" fill="none" stroke-linejoin="round" stroke-linecap="round" points="203.465,144.808 202.892,146.572 201.392,147.662 199.538,147.662 198.038,146.572 197.465,144.808 198.038,143.045 199.538,141.955 201.392,141.955 202.892,143.045 203.465,144.808"/>
   <polyline stroke="#d85218" stroke-width="0.5" fill="none" stroke-linejoin="round" stroke-linecap="round" points="206.71,144.808 206.137,146.572 204.637,147.662 202.783,147.662 201.283,146.572 200.71,144.808 201.283,143.045 202.783,141.955 204.637,141.955 206.137,143.045 206.71,144.808"/>
   <polyline stroke="#d85218" stroke-width="0.5" fill="none" stroke-linejoin="round" stroke-linecap="round" points="209.955,144.808 209.382,146.572 207.882,147.662 206.028,147.662 204.528,146.572 203.955,144.808 204.528,143.045 206.028,141.955 207.882,141.955 209.382,143.045 209.955,144.808"/>
   <polyline stroke="#d85218" stroke-width="0.5" fill="none" stroke-linejoin="round" stroke-linecap="round" points="213.2,144.808 212.627,146.572 211.127,147.662 209.273,147.662 207.773,146.572 207.2,144.808 207.773,143.045 209.273,141.955 211.127,141.955 212.627,143.045 213.2,144.808"/>
   <polyline stroke="#d85218" stroke-width="0.5" fill="none" stroke-linejoin="round" stroke-linecap="round" points="216.445,144.808 215.872,146.572 214.372,147.662 212.518,147.662 211.018,146.572 210.445,144.808 211.018,143.045 212.518,141.955 214.372,141.955 215.872,143.045 216.445,144.808"/>
   <polyline stroke="#d85218" stroke-width="0.5" fill="none" stroke-linejoin="round" stroke-linecap="round" points="219.69,144.808 219.117,146.572 217.617,147.662 215.763,147.662 214.263,146.572 213.69,144.808 214.263,143.045 215.763,141.955 217.617,141.955 219.117,143.045 219.69,144.808"/>
   <polyline stroke="#d85218" stroke-width="0.5" fill="none" stroke-linejoin="round" stroke-linecap="round" points="222.936,144.808 222.362,146.572 220.862,147.662 219.008,147.662 217.508,146.572 216.936,144.808 217.508,143.045 219.008,141.955 220.862,141.955 222.362,143.045 222.936,144.808"/>
   <polyline stroke="#d85218" stroke-width="0.5" fill="none" stroke-linejoin="round" stroke-linecap="round" points="226.181,144.808 225.607,146.572 224.107,147.662 222.253,147.662 220.753,146.572 220.181,144.808 220.753,143.045 222.253,141.955 224.107,141.955 225.607,143.045 226.181,144.808"/>
   <polyline stroke="#d85218" stroke-width="0.5" fill="none" stroke-linejoin="round" stroke-linecap="round" points="229.426,144.808 228.853,146.571 227.353,147.661 225.499,147.661 223.999,146.571 223.426,144.808 223.999,143.044 225.499,141.954 227.353,141.954 228.853,143.044 229.426,144.808"/>
   <polyline stroke="#d85218" stroke-width="0.5" fill="none" stroke-linejoin="round" stroke-linecap="round" points="232.671,144.804 232.098,146.567 230.598,147.657 228.744,147.657 227.244,146.567 226.671,144.804 227.244,143.04 228.744,141.95 230.598,141.95 232.098,143.04 232.671,144.804"/>
   <polyline stroke="#d85218" stroke-width="0.5" fill="none" stroke-linejoin="round" stroke-linecap="round" points="235.916,144.796 235.343,146.559 233.843,147.649 231.989,147.649 230.489,146.559 229.916,144.796 230.489,143.032 231.989,141.942 233.843,141.942 235.343,143.032 235.916,144.796"/>
   <polyline stroke="#d85218" stroke-width="0.5" fill="none" stroke-linejoin="round" stroke-linecap="round" points="239.161,141.616 238.588,143.379 237.088,144.469 235.234,144.469 233.734,143.379 233.161,141.616 233.734,139.853 235.234,138.763 237.088,138.763 238.588,139.853 239.161,141.616"/>
   <polyline stroke="#d85218" stroke-width="0.5" fill="none" stroke-linejoin="round" stroke-linecap="round" points="242.406,141.575 241.833,143.338 240.333,144.428 238.479,144.428 236.979,143.338 236.406,141.575 236.979,139.812 238.479,138.722 240.333,138.722 241.833,139.812 242.406,141.575"/>
   <polyline stroke="#d85218" stroke-width="0.5" fill="none" stroke-linejoin="round" stroke-linecap="round" points="245.651,140.626 245.078,142.389 243.578,143.479 241.724,143.479 240.224,142.389 239.651,140.626 240.224,138.862 241.724,137.773 243.578,137.773 245.078,138.862 245.651,140.626"/>
   <polyline stroke="#d85218" stroke-width="0.5" fill="none" stroke-linejoin="round" stroke-linecap="round" points="248.896,135.603 248.324,137.366 246.824,138.456 244.969,138.456 243.469,137.366 242.896,135.603 243.469,133.839 244.969,132.75 246.824,132.75 248.324,133.839 248.896,135.603"/>
   <polyline stroke="#d85218" stroke-width="0.5" fill="none" stroke-linejoin="round" stroke-linecap="round" points="252.142,135.486 251.569,137.249 250.069,138.339 248.214,138.339 246.714,137.249 246.142,135.486 246.714,133.723 248.214,132.633 250.069,132.633 251.569,133.723 252.142,135.486"/>
   <polyline stroke="#d85218" stroke-width="0.5" fill="none" stroke-linejoin="round" stroke-linecap="round" points="255.387,134.991 254.814,136.754 253.314,137.844 251.459,137.844 249.959,136.754 249.387,134.991 249.959,133.228 251.459,132.138 253.314,132.138 254.814,133.228 255.387,134.991"/>
   <polyline stroke="#d85218" stroke-width="0.5" fill="none" stroke-linejoin="round" stroke-linecap="round" points="258.632,132.5 258.059,134.263 256.559,135.353 254.705,135.353 253.205,134.263 252.632,132.5 253.205,130.736 254.705,129.646 256.559,129.646 258.059,130.736 258.632,132.5"/>
   <polyline stroke="#d85218" stroke-width="0.5" fill="none" stroke-linejoin="round" stroke-linecap="round" points="261.877,115.432 261.304,117.196 259.804,118.286 257.95,118.286 256.45,117.196 255.877,115.432 256.45,113.669 257.95,112.579 259.804,112.579 261.304,113.669 261.877,115.432"/>
   <polyline stroke="#d85218" stroke-width="0.5" fill="none" stroke-linejoin="round" stroke-linecap="round" points="265.122,112.855 264.549,114.619 263.049,115.708 261.195,115.708 259.695,114.619 259.122,112.855 259.695,111.092 261.195,110.002 263.049,110.002 264.549,111.092 265.122,112.855"/>
   <polyline stroke="#d85218" stroke-width="0.5" fill="none" stroke-linejoin="round" stroke-linecap="round" points="268.367,103.645 267.794,105.408 266.294,106.498 264.44,106.498 262.94,105.408 262.367,103.645 262.94,101.881 264.44,100.792 266.294,100.792 267.794,101.881 268.367,103.645"/>
   <polyline stroke="#d85218" stroke-width="0.5" fill="none" stroke-linejoin="round" stroke-linecap="round" points="271.612,97.4775 271.04,99.2412 269.54,100.331 267.685,100.331 266.185,99.2412 265.612,97.4775 266.185,95.7144 267.685,94.6245 269.54,94.6245 271.04,95.7144 271.612,97.4775"/>
   <polyline stroke="#d85218" stroke-width="0.5" fill="none" stroke-linejoin="round" stroke-linecap="round" points="274.857,84.9619 274.285,86.7251 272.785,87.8149 270.93,87.8149 269.43,86.7251 268.857,84.9619 269.43,83.1987 270.93,82.1089 272.785,82.1089 274.285,83.1987 274.857,84.9619"/>
   <polyline stroke="#d85218" stroke-width="0.5" fill="none" stroke-linejoin="round" stroke-linecap="round" points="278.103,83.7842 277.53,85.5474 276.03,86.6372 274.175,86.6372 272.675,85.5474 272.103,83.7842 272.675,82.0205 274.175,80.9307 276.03,80.9307 277.53,82.0205 278.103,83.7842"/>
   <polyline stroke="#d85218" stroke-width="0.5" fill="none" stroke-linejoin="round" stroke-linecap="round" points="281.348,82.3555 280.775,84.1191 279.275,85.209 277.42,85.209 275.92,84.1191 275.348,82.3555 275.92,80.5923 277.42,79.5024 279.275,79.5024 280.775,80.5923 281.348,82.3555"/>
   <polyline stroke="#d85218" stroke-width="0.5" fill="none" stroke-linejoin="round" stroke-linecap="round" points="284.593,81.1504 284.02,82.9136 282.52,84.0034 280.666,84.0034 279.166,82.9136 278.593,81.1504 279.166,79.3867 280.666,78.2969 282.52,78.2969 284.02,79.3867 284.593,81.1504"/>
   <polyline stroke="#d85218" stroke-width="0.5" fill="none" stroke-linejoin="round" stroke-linecap="round" points="287.838,80.8711 287.265,82.6348 285.765,83.7246 283.911,83.7246 282.411,82.6348 281.838,80.8711 282.411,79.1079 283.911,78.0181 285.765,78.0181 287.265,79.1079 287.838,80.8711"/>
   <polyline stroke="#d85218" stroke-width="0.5" fill="none" stroke-linejoin="round" stroke-linecap="round" points="291.083,80.5361 290.51,82.2998 289.01,83.3896 287.156,83.3896 285.656,82.2998 285.083,80.5361 285.656,78.7729 287.156,77.6831 289.01,77.6831 290.51,78.7729 291.083,80.5361"/>
   <polyline stroke="#d85218" stroke-width="0.5" fill="none" stroke-linejoin="round" stroke-linecap="round" points="294.328,80.2598 293.755,82.0229 292.255,83.1128 290.401,83.1128 288.901,82.0229 288.328,80.2598 288.901,78.4961 290.401,77.4062 292.255,77.4062 293.755,78.4961 294.328,80.2598"/>
   <polyline stroke="#d85218" stroke-width="0.5" fill="none" stroke-linejoin="round" stroke-linecap="round" points="297.573,64.5776 297,66.3413 295.5,67.4312 293.646,67.4312 292.146,66.3413 291.573,64.5776 292.146,62.8145 293.646,61.7246 295.5,61.7246 297,62.8145 297.573,64.5776"/>
   <polyline stroke="#d85218" stroke-width="0.5" fill="none" stroke-linejoin="round" stroke-linecap="round" points="300.818,63.752 300.246,65.5151 298.746,66.605 296.891,66.605 295.391,65.5151 294.818,63.752 295.391,61.9888 296.891,60.8989 298.746,60.8989 300.246,61.9888 300.818,63.752"/>
   <polyline stroke="#d85218" stroke-width="0.5" fill="none" stroke-linejoin="round" stroke-linecap="round" points="304.063,56.2549 303.491,58.0181 301.991,59.1079 300.136,59.1079 298.636,58.0181 298.063,56.2549 298.636,54.4912 300.136,53.4014 301.991,53.4014 303.491,54.4912 304.063,56.2549"/>
   <polyline stroke="#d85218" stroke-width="0.5" fill="none" stroke-linejoin="round" stroke-linecap="round" points="307.309,51.2388 306.736,53.002 305.236,54.0918 303.381,54.0918 301.881,53.002 301.309,51.2388 301.881,49.4756 303.381,48.3857 305.236,48.3857 306.736,49.4756 307.309,51.2388"/>
   <polyline stroke="#d85218" stroke-width="0.5" fill="none" stroke-linejoin="round" stroke-linecap="round" points="310.554,45.8496 309.981,47.6133 308.481,48.7031 306.626,48.7031 305.126,47.6133 304.554,45.8496 305.126,44.0864 306.626,42.9966 308.481,42.9966 309.981,44.0864 310.554,45.8496"/>
   <polyline stroke="#d85218" stroke-width="0.5" fill="none" stroke-linejoin="round" stroke-linecap="round" points="313.799,42.7476 313.226,44.5107 311.726,45.6006 309.872,45.6006 308.372,44.5107 307.799,42.7476 308.372,40.9844 309.872,39.8945 311.726,39.8945 313.226,40.9844 313.799,42.7476"/>
   <polyline stroke="#d85218" stroke-width="0.5" fill="none" stroke-linejoin="round" stroke-linecap="round" points="317.044,42.3105 316.471,44.0737 314.971,45.1636 313.117,45.1636 311.617,44.0737 311.044,42.3105 311.617,40.5474 313.117,39.4575 314.971,39.4575 316.471,40.5474 317.044,42.3105"/>
   <polyline stroke="#d85218" stroke-width="0.5" fill="none" stroke-linejoin="round" stroke-linecap="round" points="320.289,41.6919 319.716,43.4551 318.216,44.5449 316.362,44.5449 314.862,43.4551 314.289,41.6919 314.862,39.9282 316.362,38.8384 318.216,38.8384 319.716,39.9282 320.289,41.6919"/>
   <polyline stroke="#d85218" stroke-width="0.5" fill="none" stroke-linejoin="round" stroke-linecap="round" points="323.534,41.3506 322.961,43.1138 321.461,44.2036 319.607,44.2036 318.107,43.1138 317.534,41.3506 318.107,39.5874 319.607,38.4976 321.461,38.4976 322.961,39.5874 323.534,41.3506"/>
   <polyline stroke="#d85218" stroke-width="0.5" fill="none" stroke-linejoin="round" stroke-linecap="round" points="326.779,38.0166 326.207,39.7798 324.707,40.8696 322.853,40.8696 321.353,39.7798 320.779,38.0166 321.353,36.2534 322.853,35.1636 324.707,35.1636 326.207,36.2534 326.779,38.0166"/>
   <polyline stroke="#d85218" stroke-width="0.5" fill="none" stroke-linejoin="round" stroke-linecap="round" points="330.024,35.1484 329.452,36.9116 327.952,38.0015 326.098,38.0015 324.598,36.9116 324.024,35.1484 324.598,33.3853 326.098,32.2954 327.952,32.2954 329.452,33.3853 330.024,35.1484"/>
   <polyline stroke="#d85218" stroke-width="0.5" fill="none" stroke-linejoin="round" stroke-linecap="round" points="333.27,34.647 332.697,36.4106 331.197,37.5005 329.343,37.5005 327.843,36.4106 327.27,34.647 327.843,32.8838 329.343,31.7939 331.197,31.7939 332.697,32.8838 333.27,34.647"/>
   <polyline stroke="#d85218" stroke-width="0.5" fill="none" stroke-linejoin="round" stroke-linecap="round" points="336.515,28.4141 335.942,30.1777 334.442,31.2676 332.588,31.2676 331.088,30.1777 330.515,28.4141 331.088,26.6509 332.588,25.561 334.442,25.561 335.942,26.6509 336.515,28.4141"/>
   <polyline stroke="#d85218" stroke-width="0.5" fill="none" stroke-linejoin="round" stroke-linecap="round" points="339.76,28.1426 339.187,29.9058 337.687,30.9956 335.833,30.9956 334.333,29.9058 333.76,28.1426 334.333,26.3789 335.833,25.2891 337.687,25.2891 339.187,26.3789 339.76,28.1426"/>
   <polyline stroke="#d85218" stroke-width="0.5" fill="none" stroke-linejoin="round" stroke-linecap="round" points="343.005,27.6426 342.432,29.4062 340.932,30.4961 339.078,30.4961 337.578,29.4062 337.005,27.6426 337.578,25.8794 339.078,24.7896 340.932,24.7896 342.432,25.8794 343.005,27.6426"/>
   <polyline stroke="#d85218" stroke-width="0.5" fill="none" stroke-linejoin="round" stroke-linecap="round" points="346.25,26.3071 345.677,28.0703 344.177,29.1602 342.323,29.1602 340.823,28.0703 340.25,26.3071 340.823,24.5439 342.323,23.4541 344.177,23.4541 345.677,24.5439 346.25,26.3071"/>
   <polyline stroke="#d85218" stroke-width="0.5" fill="none" stroke-linejoin="round" stroke-linecap="round" points="349.495,26.2627 348.922,28.0259 347.422,29.1157 345.568,29.1157 344.068,28.0259 343.495,26.2627 344.068,24.499 345.568,23.4092 347.422,23.4092 348.922,24.499 349.495,26.2627"/>
   <polyline stroke="#d85218" stroke-width="0.5" fill="none" stroke-linejoin="round" stroke-linecap="round" points="352.74,25.9365 352.167,27.6997 350.667,28.7896 348.813,28.7896 347.313,27.6997 346.74,25.9365 347.313,24.1729 348.813,23.083 350.667,23.083 352.167,24.1729 352.74,25.9365"/>
   <polyline stroke="#d85218" stroke-width="0.5" fill="none" stroke-linejoin="round" stroke-linecap="round" points="355.985,25.9229 355.413,27.686 353.913,28.7759 352.059,28.7759 350.559,27.686 349.985,25.9229 350.559,24.1597 352.059,23.0698 353.913,23.0698 355.413,24.1597 355.985,25.9229"/>
   <polyline stroke="#d85218" stroke-width="0.5" fill="none" stroke-linejoin="round" stroke-linecap="round" points="359.23,25.6528 358.658,27.416 357.158,28.5059 355.304,28.5059 353.804,27.416 353.23,25.6528 353.804,23.8892 355.304,22.7993 357.158,22.7993 358.658,23.8892 359.23,25.6528"/>
   <polyline stroke="#d85218" stroke-width="0.5" fill="none" stroke-linejoin="round" stroke-linecap="round" points="362.476,25.0728 361.903,26.8364 360.403,27.9263 358.549,27.9263 357.049,26.8364 356.476,25.0728 357.049,23.3096 358.549,22.2197 360.403,22.2197 361.903,23.3096 362.476,25.0728"/>
   <polyline stroke="#d85218" stroke-width="0.5" fill="none" stroke-linejoin="round" stroke-linecap="round" points="365.721,25.0522 365.148,26.8159 363.648,27.9058 361.794,27.9058 360.294,26.8159 359.721,25.0522 360.294,23.2891 361.794,22.1992 363.648,22.1992 365.148,23.2891 365.721,25.0522"/>
   <polyline stroke="#d85218" stroke-width="0.5" fill="none" stroke-linejoin="round" stroke-linecap="round" points="368.966,24.9067 368.393,26.6699 366.893,27.7598 365.039,27.7598 363.539,26.6699 362.966,24.9067 363.539,23.1431 365.039,22.0532 366.893,22.0532 368.393,23.1431 368.966,24.9067"/>
   <polyline stroke="#d85218" stroke-width="0.5" fill="none" stroke-linejoin="round" stroke-linecap="round" points="372.211,24.7598 371.638,26.5229 370.138,27.6128 368.284,27.6128 366.784,26.5229 366.211,24.7598 366.784,22.9961 368.284,21.9062 370.138,21.9062 371.638,22.9961 372.211,24.7598"/>
   <polyline stroke="#d85218" stroke-width="0.5" fill="none" stroke-linejoin="round" stroke-linecap="round" points="375.456,24.5654 374.883,26.3286 373.383,27.4185 371.529,27.4185 370.029,26.3286 369.456,24.5654 370.029,22.8018 371.529,21.7119 373.383,21.7119 374.883,22.8018 375.456,24.5654"/>
   <polyline stroke="#d85218" stroke-width="0.5" fill="none" stroke-linejoin="round" stroke-linecap="round" points="378.701,24.3232 378.128,26.0864 376.628,27.1763 374.774,27.1763 373.274,26.0864 372.701,24.3232 373.274,22.5596 374.774,21.4697 376.628,21.4697 378.128,22.5596 378.701,24.3232"/>
   <polyline stroke="#d85218" stroke-width="0.5" fill="none" stroke-linejoin="round" stroke-linecap="round" points="381.946,24.1143 381.374,25.8779 379.874,26.9678 378.02,26.9678 376.52,25.8779 375.946,24.1143 376.52,22.3511 378.02,21.2612 379.874,21.2612 381.374,22.3511 381.946,24.1143"/>
  </g>
  <clipPath id="cp00418314">
   <polygon points="0,314 418,314 418,0 0,0"/>
  </clipPath>
  <g clip-path="url(#cp00418314)">
   <polygon fill="#ffffff" shape-rendering="crispEdges" points="103.937,258.061 370.944,258.061 370.944,201.615 103.937,201.615"/>
   <polyline stroke="#262626" stroke-width="0.5" fill="none" stroke-linejoin="miter" stroke-dasharray="16,0" stroke-linecap="square" points="103.937,258.061 370.944,258.061"/>
   <polyline stroke="#262626" stroke-width="0.5" fill="none" stroke-linejoin="miter" stroke-dasharray="16,0" stroke-linecap="square" points="103.937,201.615 370.944,201.615"/>
   <polyline stroke="#262626" stroke-width="0.5" fill="none" stroke-linejoin="miter" stroke-dasharray="16,0" stroke-linecap="square" points="103.937,258.061 103.937,201.615"/>
   <polyline stroke="#262626" stroke-width="0.5" fill="none" stroke-linejoin="miter" stroke-dasharray="16,0" stroke-linecap="square" points="370.944,258.061 370.944,201.615"/>
   <polyline stroke="#0071bc" stroke-width="0.5" fill="none" stroke-linejoin="round" stroke-linecap="butt" points="107.938,212.337 127.942,212.337"/>
   <defs>
    <path id="0-g0-100" d="M3.785803-.547945V.109589L5.250311 0V-.308842C4.552927-.308842 4.473225-.37858 4.473225-.86675V-6.914072L3.038605-6.804483V-6.495641C3.73599-6.495641 3.815691-6.425903 3.815691-5.937733V-3.785803C3.526775-4.144458 3.098381-4.403487 2.560399-4.403487C1.384807-4.403487 .33873-3.427148 .33873-2.141968C.33873-.876712 1.315068 .109589 2.450809 .109589C3.088418 .109589 3.536737-.229141 3.785803-.547945ZM3.785803-3.217933V-1.175592C3.785803-.996264 3.785803-.976339 3.676214-.806974C3.377335-.328767 2.929016-.109589 2.500623-.109589C2.052304-.109589 1.693649-.368618 1.454545-.747198C1.195517-1.155666 1.165629-1.723537 1.165629-2.132005C1.165629-2.500623 1.185554-3.098381 1.474471-3.5467C1.683686-3.855542 2.062267-4.184309 2.600249-4.184309C2.948941-4.184309 3.367372-4.034869 3.676214-3.58655C3.785803-3.417186 3.785803-3.39726 3.785803-3.217933Z"/>
    <path id="0-g0-101" d="M1.115816-2.510585C1.175592-3.995019 2.012453-4.244085 2.351183-4.244085C3.377335-4.244085 3.476961-2.899128 3.476961-2.510585H1.115816ZM1.105853-2.30137H3.88543C4.104608-2.30137 4.134496-2.30137 4.134496-2.510585C4.134496-3.496887 3.596513-4.463263 2.351183-4.463263C1.195517-4.463263 .278954-3.437111 .278954-2.191781C.278954-.856787 1.325031 .109589 2.470735 .109589C3.686177 .109589 4.134496-.996264 4.134496-1.185554C4.134496-1.285181 4.054795-1.305106 4.004981-1.305106C3.915318-1.305106 3.895392-1.24533 3.875467-1.165629C3.526775-.139477 2.630137-.139477 2.530511-.139477C2.032379-.139477 1.633873-.438356 1.404732-.806974C1.105853-1.285181 1.105853-1.942715 1.105853-2.30137Z"/>
    <path id="0-g0-108" d="M1.763387-6.914072L.328767-6.804483V-6.495641C1.026152-6.495641 1.105853-6.425903 1.105853-5.937733V-.757161C1.105853-.308842 .996264-.308842 .328767-.308842V0C.657534-.009963 1.185554-.029888 1.43462-.029888S2.171856-.009963 2.540473 0V-.308842C1.872976-.308842 1.763387-.308842 1.763387-.757161V-6.914072Z"/>
    <path id="0-g0-109" d="M1.09589-3.427148V-.757161C1.09589-.308842 .986301-.308842 .318804-.308842V0C.667497-.009963 1.175592-.029888 1.444583-.029888C1.703611-.029888 2.221669-.009963 2.560399 0V-.308842C1.892902-.308842 1.783313-.308842 1.783313-.757161V-2.590286C1.783313-3.626401 2.49066-4.184309 3.128269-4.184309C3.755915-4.184309 3.865504-3.646326 3.865504-3.078456V-.757161C3.865504-.308842 3.755915-.308842 3.088418-.308842V0C3.437111-.009963 3.945205-.029888 4.214197-.029888C4.473225-.029888 4.991283-.009963 5.330012 0V-.308842C4.662516-.308842 4.552927-.308842 4.552927-.757161V-2.590286C4.552927-3.626401 5.260274-4.184309 5.897883-4.184309C6.525529-4.184309 6.635118-3.646326 6.635118-3.078456V-.757161C6.635118-.308842 6.525529-.308842 5.858032-.308842V0C6.206725-.009963 6.714819-.029888 6.983811-.029888C7.242839-.029888 7.760897-.009963 8.099626 0V-.308842C7.581569-.308842 7.332503-.308842 7.32254-.607721V-2.510585C7.32254-3.367372 7.32254-3.676214 7.013699-4.034869C6.874222-4.204234 6.545455-4.403487 5.967621-4.403487C5.13076-4.403487 4.692403-3.805729 4.523039-3.427148C4.383562-4.293898 3.646326-4.403487 3.198007-4.403487C2.470735-4.403487 2.002491-3.975093 1.723537-3.35741V-4.403487L.318804-4.293898V-3.985056C1.016189-3.985056 1.09589-3.915318 1.09589-3.427148Z"/>
    <path id="0-g0-111" d="M4.692403-2.132005C4.692403-3.407223 3.696139-4.463263 2.49066-4.463263C1.24533-4.463263 .278954-3.377335 .278954-2.132005C.278954-.846824 1.315068 .109589 2.480697 .109589C3.686177 .109589 4.692403-.86675 4.692403-2.132005ZM2.49066-.139477C2.062267-.139477 1.62391-.348692 1.354919-.806974C1.105853-1.24533 1.105853-1.853051 1.105853-2.211706C1.105853-2.600249 1.105853-3.138232 1.344956-3.576588C1.613948-4.034869 2.082192-4.244085 2.480697-4.244085C2.919054-4.244085 3.347447-4.024907 3.606476-3.596513S3.865504-2.590286 3.865504-2.211706C3.865504-1.853051 3.865504-1.315068 3.646326-.876712C3.427148-.428394 2.988792-.139477 2.49066-.139477Z"/>
   </defs>
   <g transform="translate(235.623469,311.017633) matrix(1.44 0 0 1.44 0 0)" fill="rgb(0,0,0)">
    <use x="-72.000004" y="-65.081506" xlink:href="#0-g0-109"/>
    <use x="-63.697779" y="-65.081506" xlink:href="#0-g0-111"/>
    <use x="-58.439691" y="-65.081506" xlink:href="#0-g0-100"/>
    <use x="-52.904874" y="-65.081506" xlink:href="#0-g0-101"/>
    <use x="-48.477023" y="-65.081506" xlink:href="#0-g0-108"/>
   </g>
   <polyline stroke="#d85218" stroke-width="0.5" fill="none" stroke-linejoin="round" stroke-linecap="round" points="120.94,238.56 120.367,240.324 118.867,241.414 117.013,241.414 115.513,240.324 114.94,238.56 115.513,236.797 117.013,235.707 118.867,235.707 120.367,236.797 120.94,238.56"/>
   <defs>
    <path id="1-g0-45" d="M2.749689-1.863014V-2.440847H.109589V-1.863014H2.749689Z"/>
    <path id="1-g0-46" d="M1.912827-.52802C1.912827-.816936 1.673724-1.05604 1.384807-1.05604S.856787-.816936 .856787-.52802S1.09589 0 1.384807 0S1.912827-.239103 1.912827-.52802Z"/>
    <path id="1-g0-48" d="M4.582814-3.188045C4.582814-3.985056 4.533001-4.782067 4.184309-5.519303C3.726027-6.475716 2.909091-6.635118 2.49066-6.635118C1.892902-6.635118 1.165629-6.37609 .757161-5.449564C.438356-4.762142 .388543-3.985056 .388543-3.188045C.388543-2.440847 .428394-1.544209 .836862-.787049C1.265255 .019925 1.992528 .219178 2.480697 .219178C3.01868 .219178 3.775841 .009963 4.214197-.936488C4.533001-1.62391 4.582814-2.400996 4.582814-3.188045ZM2.480697 0C2.092154 0 1.504359-.249066 1.325031-1.205479C1.215442-1.803238 1.215442-2.719801 1.215442-3.307597C1.215442-3.945205 1.215442-4.60274 1.295143-5.140722C1.484433-6.326276 2.231631-6.41594 2.480697-6.41594C2.809465-6.41594 3.466999-6.236613 3.656289-5.250311C3.755915-4.692403 3.755915-3.935243 3.755915-3.307597C3.755915-2.560399 3.755915-1.882939 3.646326-1.24533C3.496887-.298879 2.929016 0 2.480697 0Z"/>
    <path id="1-g0-49" d="M2.929016-6.37609C2.929016-6.615193 2.929016-6.635118 2.699875-6.635118C2.082192-5.997509 1.205479-5.997509 .886675-5.997509V-5.688667C1.085928-5.688667 1.673724-5.688667 2.191781-5.947696V-.787049C2.191781-.428394 2.161893-.308842 1.265255-.308842H.946451V0C1.295143-.029888 2.161893-.029888 2.560399-.029888S3.825654-.029888 4.174346 0V-.308842H3.855542C2.958904-.308842 2.929016-.418431 2.929016-.787049V-6.37609Z"/>
    <path id="1-g0-61" d="M6.844334-3.257783C6.993773-3.257783 7.183064-3.257783 7.183064-3.457036S6.993773-3.656289 6.854296-3.656289H.886675C.747198-3.656289 .557908-3.656289 .557908-3.457036S.747198-3.257783 .896638-3.257783H6.844334ZM6.854296-1.325031C6.993773-1.325031 7.183064-1.325031 7.183064-1.524284S6.993773-1.723537 6.844334-1.723537H.896638C.747198-1.723537 .557908-1.723537 .557908-1.524284S.747198-1.325031 .886675-1.325031H6.854296Z"/>
    <path id="1-g0-84" d="M6.635118-6.744707H.547945L.358655-4.503113H.607721C.747198-6.107098 .896638-6.435866 2.400996-6.435866C2.580324-6.435866 2.839352-6.435866 2.938979-6.41594C3.148194-6.37609 3.148194-6.266501 3.148194-6.03736V-.787049C3.148194-.448319 3.148194-.308842 2.102117-.308842H1.703611V0C2.11208-.029888 3.128269-.029888 3.58655-.029888S5.070984-.029888 5.479452 0V-.308842H5.080946C4.034869-.308842 4.034869-.448319 4.034869-.787049V-6.03736C4.034869-6.236613 4.034869-6.37609 4.214197-6.41594C4.323786-6.435866 4.592777-6.435866 4.782067-6.435866C6.286426-6.435866 6.435866-6.107098 6.575342-4.503113H6.824408L6.635118-6.744707Z"/>
    <path id="1-g0-97" d="M3.317559-.757161C3.35741-.358655 3.626401 .059776 4.094645 .059776C4.303861 .059776 4.911582-.079701 4.911582-.886675V-1.444583H4.662516V-.886675C4.662516-.308842 4.41345-.249066 4.303861-.249066C3.975093-.249066 3.935243-.697385 3.935243-.747198V-2.739726C3.935243-3.158157 3.935243-3.5467 3.576588-3.915318C3.188045-4.303861 2.689913-4.463263 2.211706-4.463263C1.39477-4.463263 .707347-3.995019 .707347-3.337484C.707347-3.038605 .9066-2.86924 1.165629-2.86924C1.444583-2.86924 1.62391-3.068493 1.62391-3.327522C1.62391-3.447073 1.574097-3.775841 1.115816-3.785803C1.384807-4.134496 1.872976-4.244085 2.191781-4.244085C2.67995-4.244085 3.247821-3.855542 3.247821-2.968867V-2.600249C2.739726-2.570361 2.042341-2.540473 1.414695-2.241594C.667497-1.902864 .418431-1.384807 .418431-.946451C.418431-.139477 1.384807 .109589 2.012453 .109589C2.669988 .109589 3.128269-.288917 3.317559-.757161ZM3.247821-2.391034V-1.39477C3.247821-.448319 2.530511-.109589 2.082192-.109589C1.594022-.109589 1.185554-.458281 1.185554-.956413C1.185554-1.504359 1.603985-2.331258 3.247821-2.391034Z"/>
    <path id="1-g0-98" d="M1.713574-3.755915V-6.914072L.278954-6.804483V-6.495641C.976339-6.495641 1.05604-6.425903 1.05604-5.937733V0H1.305106C1.315068-.009963 1.39477-.14944 1.663761-.617684C1.8132-.388543 2.231631 .109589 2.968867 .109589C4.154421 .109589 5.190535-.86675 5.190535-2.15193C5.190535-3.417186 4.214197-4.403487 3.078456-4.403487C2.30137-4.403487 1.872976-3.935243 1.713574-3.755915ZM1.743462-1.135741V-3.188045C1.743462-3.377335 1.743462-3.387298 1.853051-3.5467C2.241594-4.104608 2.789539-4.184309 3.028643-4.184309C3.476961-4.184309 3.835616-3.92528 4.07472-3.5467C4.333748-3.138232 4.363636-2.570361 4.363636-2.161893C4.363636-1.793275 4.343711-1.195517 4.054795-.747198C3.845579-.438356 3.466999-.109589 2.929016-.109589C2.480697-.109589 2.122042-.348692 1.882939-.71731C1.743462-.926526 1.743462-.956413 1.743462-1.135741Z"/>
    <path id="1-g0-100" d="M3.785803-.547945V.109589L5.250311 0V-.308842C4.552927-.308842 4.473225-.37858 4.473225-.86675V-6.914072L3.038605-6.804483V-6.495641C3.73599-6.495641 3.815691-6.425903 3.815691-5.937733V-3.785803C3.526775-4.144458 3.098381-4.403487 2.560399-4.403487C1.384807-4.403487 .33873-3.427148 .33873-2.141968C.33873-.876712 1.315068 .109589 2.450809 .109589C3.088418 .109589 3.536737-.229141 3.785803-.547945ZM3.785803-3.217933V-1.175592C3.785803-.996264 3.785803-.976339 3.676214-.806974C3.377335-.328767 2.929016-.109589 2.500623-.109589C2.052304-.109589 1.693649-.368618 1.454545-.747198C1.195517-1.155666 1.165629-1.723537 1.165629-2.132005C1.165629-2.500623 1.185554-3.098381 1.474471-3.5467C1.683686-3.855542 2.062267-4.184309 2.600249-4.184309C2.948941-4.184309 3.367372-4.034869 3.676214-3.58655C3.785803-3.417186 3.785803-3.39726 3.785803-3.217933Z"/>
    <path id="1-g0-101" d="M1.115816-2.510585C1.175592-3.995019 2.012453-4.244085 2.351183-4.244085C3.377335-4.244085 3.476961-2.899128 3.476961-2.510585H1.115816ZM1.105853-2.30137H3.88543C4.104608-2.30137 4.134496-2.30137 4.134496-2.510585C4.134496-3.496887 3.596513-4.463263 2.351183-4.463263C1.195517-4.463263 .278954-3.437111 .278954-2.191781C.278954-.856787 1.325031 .109589 2.470735 .109589C3.686177 .109589 4.134496-.996264 4.134496-1.185554C4.134496-1.285181 4.054795-1.305106 4.004981-1.305106C3.915318-1.305106 3.895392-1.24533 3.875467-1.165629C3.526775-.139477 2.630137-.139477 2.530511-.139477C2.032379-.139477 1.633873-.438356 1.404732-.806974C1.105853-1.285181 1.105853-1.942715 1.105853-2.30137Z"/>
    <path id="1-g0-102" d="M1.743462-4.293898V-5.449564C1.743462-6.326276 2.221669-6.804483 2.660025-6.804483C2.689913-6.804483 2.839352-6.804483 2.988792-6.734745C2.86924-6.694894 2.689913-6.56538 2.689913-6.316314C2.689913-6.087173 2.849315-5.88792 3.118306-5.88792C3.407223-5.88792 3.556663-6.087173 3.556663-6.326276C3.556663-6.694894 3.188045-7.023661 2.660025-7.023661C1.96264-7.023661 1.115816-6.495641 1.115816-5.439601V-4.293898H.328767V-3.985056H1.115816V-.757161C1.115816-.308842 1.006227-.308842 .33873-.308842V0C.727273-.009963 1.195517-.029888 1.474471-.029888C1.872976-.029888 2.34122-.029888 2.739726 0V-.308842H2.530511C1.793275-.308842 1.77335-.418431 1.77335-.777086V-3.985056H2.909091V-4.293898H1.743462Z"/>
    <path id="1-g0-103" d="M2.211706-1.713574C1.344956-1.713574 1.344956-2.709838 1.344956-2.938979C1.344956-3.20797 1.354919-3.526775 1.504359-3.775841C1.58406-3.895392 1.8132-4.174346 2.211706-4.174346C3.078456-4.174346 3.078456-3.178082 3.078456-2.948941C3.078456-2.67995 3.068493-2.361146 2.919054-2.11208C2.839352-1.992528 2.610212-1.713574 2.211706-1.713574ZM1.05604-1.325031C1.05604-1.364882 1.05604-1.594022 1.225405-1.793275C1.613948-1.514321 2.022416-1.484433 2.211706-1.484433C3.138232-1.484433 3.825654-2.171856 3.825654-2.938979C3.825654-3.307597 3.666252-3.676214 3.417186-3.905355C3.775841-4.244085 4.134496-4.293898 4.313823-4.293898C4.333748-4.293898 4.383562-4.293898 4.41345-4.283935C4.303861-4.244085 4.254047-4.134496 4.254047-4.014944C4.254047-3.845579 4.383562-3.726027 4.542964-3.726027C4.64259-3.726027 4.83188-3.795766 4.83188-4.024907C4.83188-4.194271 4.712329-4.513076 4.323786-4.513076C4.124533-4.513076 3.686177-4.4533 3.267746-4.044832C2.849315-4.373599 2.430884-4.403487 2.211706-4.403487C1.285181-4.403487 .597758-3.716065 .597758-2.948941C.597758-2.510585 .816936-2.132005 1.066002-1.92279C.936488-1.77335 .757161-1.444583 .757161-1.09589C.757161-.787049 .886675-.408468 1.195517-.209215C.597758-.039851 .278954 .388543 .278954 .787049C.278954 1.504359 1.265255 2.052304 2.480697 2.052304C3.656289 2.052304 4.692403 1.544209 4.692403 .767123C4.692403 .418431 4.552927-.089664 4.044832-.368618C3.516812-.647572 2.938979-.647572 2.331258-.647572C2.082192-.647572 1.653798-.647572 1.58406-.657534C1.265255-.697385 1.05604-1.006227 1.05604-1.325031ZM2.49066 1.823163C1.484433 1.823163 .797011 1.315068 .797011 .787049C.797011 .328767 1.175592-.039851 1.613948-.069738H2.201743C3.058531-.069738 4.174346-.069738 4.174346 .787049C4.174346 1.325031 3.466999 1.823163 2.49066 1.823163Z"/>
    <path id="1-g0-104" d="M1.09589-.757161C1.09589-.308842 .986301-.308842 .318804-.308842V0C.667497-.009963 1.175592-.029888 1.444583-.029888C1.703611-.029888 2.221669-.009963 2.560399 0V-.308842C1.892902-.308842 1.783313-.308842 1.783313-.757161V-2.590286C1.783313-3.626401 2.49066-4.184309 3.128269-4.184309C3.755915-4.184309 3.865504-3.646326 3.865504-3.078456V-.757161C3.865504-.308842 3.755915-.308842 3.088418-.308842V0C3.437111-.009963 3.945205-.029888 4.214197-.029888C4.473225-.029888 4.991283-.009963 5.330012 0V-.308842C4.811955-.308842 4.562889-.308842 4.552927-.607721V-2.510585C4.552927-3.367372 4.552927-3.676214 4.244085-4.034869C4.104608-4.204234 3.775841-4.403487 3.198007-4.403487C2.361146-4.403487 1.92279-3.805729 1.753425-3.427148V-6.914072L.318804-6.804483V-6.495641C1.016189-6.495641 1.09589-6.425903 1.09589-5.937733V-.757161Z"/>
    <path id="1-g0-105" d="M1.763387-4.403487L.368618-4.293898V-3.985056C1.016189-3.985056 1.105853-3.92528 1.105853-3.437111V-.757161C1.105853-.308842 .996264-.308842 .328767-.308842V0C.647572-.009963 1.185554-.029888 1.424658-.029888C1.77335-.029888 2.122042-.009963 2.460772 0V-.308842C1.803238-.308842 1.763387-.358655 1.763387-.747198V-4.403487ZM1.803238-6.136986C1.803238-6.455791 1.554172-6.665006 1.275218-6.665006C.966376-6.665006 .747198-6.396015 .747198-6.136986C.747198-5.867995 .966376-5.608966 1.275218-5.608966C1.554172-5.608966 1.803238-5.818182 1.803238-6.136986Z"/>
    <path id="1-g0-108" d="M1.763387-6.914072L.328767-6.804483V-6.495641C1.026152-6.495641 1.105853-6.425903 1.105853-5.937733V-.757161C1.105853-.308842 .996264-.308842 .328767-.308842V0C.657534-.009963 1.185554-.029888 1.43462-.029888S2.171856-.009963 2.540473 0V-.308842C1.872976-.308842 1.763387-.308842 1.763387-.757161V-6.914072Z"/>
    <path id="1-g0-109" d="M1.09589-3.427148V-.757161C1.09589-.308842 .986301-.308842 .318804-.308842V0C.667497-.009963 1.175592-.029888 1.444583-.029888C1.703611-.029888 2.221669-.009963 2.560399 0V-.308842C1.892902-.308842 1.783313-.308842 1.783313-.757161V-2.590286C1.783313-3.626401 2.49066-4.184309 3.128269-4.184309C3.755915-4.184309 3.865504-3.646326 3.865504-3.078456V-.757161C3.865504-.308842 3.755915-.308842 3.088418-.308842V0C3.437111-.009963 3.945205-.029888 4.214197-.029888C4.473225-.029888 4.991283-.009963 5.330012 0V-.308842C4.662516-.308842 4.552927-.308842 4.552927-.757161V-2.590286C4.552927-3.626401 5.260274-4.184309 5.897883-4.184309C6.525529-4.184309 6.635118-3.646326 6.635118-3.078456V-.757161C6.635118-.308842 6.525529-.308842 5.858032-.308842V0C6.206725-.009963 6.714819-.029888 6.983811-.029888C7.242839-.029888 7.760897-.009963 8.099626 0V-.308842C7.581569-.308842 7.332503-.308842 7.32254-.607721V-2.510585C7.32254-3.367372 7.32254-3.676214 7.013699-4.034869C6.874222-4.204234 6.545455-4.403487 5.967621-4.403487C5.13076-4.403487 4.692403-3.805729 4.523039-3.427148C4.383562-4.293898 3.646326-4.403487 3.198007-4.403487C2.470735-4.403487 2.002491-3.975093 1.723537-3.35741V-4.403487L.318804-4.293898V-3.985056C1.016189-3.985056 1.09589-3.915318 1.09589-3.427148Z"/>
    <path id="1-g0-110" d="M1.09589-3.427148V-.757161C1.09589-.308842 .986301-.308842 .318804-.308842V0C.667497-.009963 1.175592-.029888 1.444583-.029888C1.703611-.029888 2.221669-.009963 2.560399 0V-.308842C1.892902-.308842 1.783313-.308842 1.783313-.757161V-2.590286C1.783313-3.626401 2.49066-4.184309 3.128269-4.184309C3.755915-4.184309 3.865504-3.646326 3.865504-3.078456V-.757161C3.865504-.308842 3.755915-.308842 3.088418-.308842V0C3.437111-.009963 3.945205-.029888 4.214197-.029888C4.473225-.029888 4.991283-.009963 5.330012 0V-.308842C4.811955-.308842 4.562889-.308842 4.552927-.607721V-2.510585C4.552927-3.367372 4.552927-3.676214 4.244085-4.034869C4.104608-4.204234 3.775841-4.403487 3.198007-4.403487C2.470735-4.403487 2.002491-3.975093 1.723537-3.35741V-4.403487L.318804-4.293898V-3.985056C1.016189-3.985056 1.09589-3.915318 1.09589-3.427148Z"/>
    <path id="1-g0-111" d="M4.692403-2.132005C4.692403-3.407223 3.696139-4.463263 2.49066-4.463263C1.24533-4.463263 .278954-3.377335 .278954-2.132005C.278954-.846824 1.315068 .109589 2.480697 .109589C3.686177 .109589 4.692403-.86675 4.692403-2.132005ZM2.49066-.139477C2.062267-.139477 1.62391-.348692 1.354919-.806974C1.105853-1.24533 1.105853-1.853051 1.105853-2.211706C1.105853-2.600249 1.105853-3.138232 1.344956-3.576588C1.613948-4.034869 2.082192-4.244085 2.480697-4.244085C2.919054-4.244085 3.347447-4.024907 3.606476-3.596513S3.865504-2.590286 3.865504-2.211706C3.865504-1.853051 3.865504-1.315068 3.646326-.876712C3.427148-.428394 2.988792-.139477 2.49066-.139477Z"/>
    <path id="1-g0-112" d="M1.713574-3.745953V-4.403487L.278954-4.293898V-3.985056C.986301-3.985056 1.05604-3.92528 1.05604-3.486924V1.175592C1.05604 1.62391 .946451 1.62391 .278954 1.62391V1.932752C.617684 1.92279 1.135741 1.902864 1.39477 1.902864C1.663761 1.902864 2.171856 1.92279 2.520548 1.932752V1.62391C1.853051 1.62391 1.743462 1.62391 1.743462 1.175592V-.498132V-.587796C1.793275-.428394 2.211706 .109589 2.968867 .109589C4.154421 .109589 5.190535-.86675 5.190535-2.15193C5.190535-3.417186 4.224159-4.403487 3.108344-4.403487C2.331258-4.403487 1.912827-3.965131 1.713574-3.745953ZM1.743462-1.135741V-3.35741C2.032379-3.865504 2.520548-4.154421 3.028643-4.154421C3.755915-4.154421 4.363636-3.277709 4.363636-2.15193C4.363636-.946451 3.666252-.109589 2.929016-.109589C2.530511-.109589 2.15193-.308842 1.882939-.71731C1.743462-.926526 1.743462-.936488 1.743462-1.135741Z"/>
    <path id="1-g0-114" d="M1.663761-3.307597V-4.403487L.278954-4.293898V-3.985056C.976339-3.985056 1.05604-3.915318 1.05604-3.427148V-.757161C1.05604-.308842 .946451-.308842 .278954-.308842V0C.667497-.009963 1.135741-.029888 1.414695-.029888C1.8132-.029888 2.281445-.029888 2.67995 0V-.308842H2.470735C1.733499-.308842 1.713574-.418431 1.713574-.777086V-2.311333C1.713574-3.297634 2.132005-4.184309 2.889166-4.184309C2.958904-4.184309 2.978829-4.184309 2.998755-4.174346C2.968867-4.164384 2.769614-4.044832 2.769614-3.785803C2.769614-3.506849 2.978829-3.35741 3.198007-3.35741C3.377335-3.35741 3.626401-3.476961 3.626401-3.795766S3.317559-4.403487 2.889166-4.403487C2.161893-4.403487 1.803238-3.73599 1.663761-3.307597Z"/>
    <path id="1-g0-115" d="M2.072229-1.932752C2.291407-1.892902 3.108344-1.733499 3.108344-1.016189C3.108344-.508095 2.759651-.109589 1.982565-.109589C1.145704-.109589 .787049-.67746 .597758-1.524284C.56787-1.653798 .557908-1.693649 .458281-1.693649C.328767-1.693649 .328767-1.62391 .328767-1.444583V-.129514C.328767 .039851 .328767 .109589 .438356 .109589C.488169 .109589 .498132 .099626 .687422-.089664C.707347-.109589 .707347-.129514 .886675-.318804C1.325031 .099626 1.77335 .109589 1.982565 .109589C3.128269 .109589 3.58655-.557908 3.58655-1.275218C3.58655-1.803238 3.287671-2.102117 3.16812-2.221669C2.839352-2.540473 2.450809-2.620174 2.032379-2.699875C1.474471-2.809465 .806974-2.938979 .806974-3.516812C.806974-3.865504 1.066002-4.273973 1.92279-4.273973C3.01868-4.273973 3.068493-3.377335 3.088418-3.068493C3.098381-2.978829 3.188045-2.978829 3.20797-2.978829C3.337484-2.978829 3.337484-3.028643 3.337484-3.217933V-4.224159C3.337484-4.393524 3.337484-4.463263 3.227895-4.463263C3.178082-4.463263 3.158157-4.463263 3.028643-4.343711C2.998755-4.303861 2.899128-4.214197 2.859278-4.184309C2.480697-4.463263 2.072229-4.463263 1.92279-4.463263C.707347-4.463263 .328767-3.795766 .328767-3.237858C.328767-2.889166 .488169-2.610212 .757161-2.391034C1.075965-2.132005 1.354919-2.072229 2.072229-1.932752Z"/>
    <path id="1-g0-116" d="M1.723537-3.985056H3.148194V-4.293898H1.723537V-6.127024H1.474471C1.464508-5.310087 1.165629-4.244085 .18929-4.204234V-3.985056H1.036115V-1.235367C1.036115-.009963 1.96264 .109589 2.321295 .109589C3.028643 .109589 3.307597-.597758 3.307597-1.235367V-1.803238H3.058531V-1.255293C3.058531-.518057 2.759651-.139477 2.391034-.139477C1.723537-.139477 1.723537-1.046077 1.723537-1.215442V-3.985056Z"/>
    <path id="1-g0-117" d="M3.895392-.787049V.109589L5.330012 0V-.308842C4.632628-.308842 4.552927-.37858 4.552927-.86675V-4.403487L3.088418-4.293898V-3.985056C3.785803-3.985056 3.865504-3.915318 3.865504-3.427148V-1.653798C3.865504-.787049 3.387298-.109589 2.660025-.109589C1.823163-.109589 1.783313-.577833 1.783313-1.09589V-4.403487L.318804-4.293898V-3.985056C1.09589-3.985056 1.09589-3.955168 1.09589-3.068493V-1.574097C1.09589-.797011 1.09589 .109589 2.610212 .109589C3.16812 .109589 3.606476-.169365 3.895392-.787049Z"/>
    <path id="1-g0-118" d="M4.144458-3.317559C4.234122-3.5467 4.403487-3.975093 5.061021-3.985056V-4.293898C4.83188-4.273973 4.542964-4.26401 4.313823-4.26401C4.07472-4.26401 3.616438-4.283935 3.447073-4.293898V-3.985056C3.815691-3.975093 3.92528-3.745953 3.92528-3.556663C3.92528-3.466999 3.905355-3.427148 3.865504-3.317559L2.849315-.777086L1.733499-3.556663C1.673724-3.686177 1.673724-3.706102 1.673724-3.726027C1.673724-3.985056 2.062267-3.985056 2.241594-3.985056V-4.293898C1.942715-4.283935 1.384807-4.26401 1.155666-4.26401C.886675-4.26401 .488169-4.273973 .18929-4.293898V-3.985056C.816936-3.985056 .856787-3.92528 .986301-3.616438L2.420922-.079701C2.480697 .059776 2.500623 .109589 2.630137 .109589S2.799502 .019925 2.839352-.079701L4.144458-3.317559Z"/>
   </defs>
   <g transform="translate(235.623469,326.740272) matrix(1.44 0 0 1.44 0 0)" fill="rgb(0,0,0)">
    <use x="-72.000004" y="-65.081506" xlink:href="#1-g0-115"/>
    <use x="-68.070287" y="-65.081506" xlink:href="#1-g0-97"/>
    <use x="-63.088947" y="-65.081506" xlink:href="#1-g0-109"/>
    <use x="-54.786722" y="-65.081506" xlink:href="#1-g0-112"/>
    <use x="-49.251905" y="-65.081506" xlink:href="#1-g0-108"/>
    <use x="-46.484497" y="-65.081506" xlink:href="#1-g0-101"/>
    <use x="-42.056645" y="-65.081506" xlink:href="#1-g0-115"/>
    <use x="-34.806052" y="-65.081506" xlink:href="#1-g0-102"/>
    <use x="-31.761895" y="-65.081506" xlink:href="#1-g0-114"/>
    <use x="-27.859845" y="-65.081506" xlink:href="#1-g0-111"/>
    <use x="-22.878506" y="-65.081506" xlink:href="#1-g0-109"/>
    <use x="-11.255405" y="-65.081506" xlink:href="#1-g0-108"/>
    <use x="-8.487997" y="-65.081506" xlink:href="#1-g0-97"/>
    <use x="-3.506658" y="-65.081506" xlink:href="#1-g0-114"/>
    <use x=".395393" y="-65.081506" xlink:href="#1-g0-103"/>
    <use x="5.376732" y="-65.081506" xlink:href="#1-g0-101"/>
    <use x="13.125458" y="-65.081506" xlink:href="#1-g0-100"/>
    <use x="18.660275" y="-65.081506" xlink:href="#1-g0-101"/>
    <use x="23.088127" y="-65.081506" xlink:href="#1-g0-118"/>
    <use x="28.346214" y="-65.081506" xlink:href="#1-g0-105"/>
    <use x="31.113623" y="-65.081506" xlink:href="#1-g0-97"/>
    <use x="36.094962" y="-65.081506" xlink:href="#1-g0-116"/>
    <use x="39.969336" y="-65.081506" xlink:href="#1-g0-105"/>
    <use x="42.736744" y="-65.081506" xlink:href="#1-g0-111"/>
    <use x="47.718083" y="-65.081506" xlink:href="#1-g0-110"/>
    <use x="-72.000004" y="-53.126338" xlink:href="#1-g0-100"/>
    <use x="-66.465187" y="-53.126338" xlink:href="#1-g0-105"/>
    <use x="-63.697779" y="-53.126338" xlink:href="#1-g0-115"/>
    <use x="-59.768061" y="-53.126338" xlink:href="#1-g0-116"/>
    <use x="-55.893687" y="-53.126338" xlink:href="#1-g0-114"/>
    <use x="-51.991637" y="-53.126338" xlink:href="#1-g0-105"/>
    <use x="-49.224228" y="-53.126338" xlink:href="#1-g0-98"/>
    <use x="-43.689411" y="-53.126338" xlink:href="#1-g0-117"/>
    <use x="-38.154594" y="-53.126338" xlink:href="#1-g0-116"/>
    <use x="-34.280221" y="-53.126338" xlink:href="#1-g0-105"/>
    <use x="-31.512812" y="-53.126338" xlink:href="#1-g0-111"/>
    <use x="-26.531473" y="-53.126338" xlink:href="#1-g0-110"/>
    <use x="-20.996656" y="-53.126338" xlink:href="#1-g0-115"/>
    <use x="-13.746063" y="-53.126338" xlink:href="#1-g0-97"/>
    <use x="-8.764724" y="-53.126338" xlink:href="#1-g0-108"/>
    <use x="-5.997316" y="-53.126338" xlink:href="#1-g0-103"/>
    <use x="-1.015977" y="-53.126338" xlink:href="#1-g0-111"/>
    <use x="3.965362" y="-53.126338" xlink:href="#1-g0-114"/>
    <use x="7.867413" y="-53.126338" xlink:href="#1-g0-105"/>
    <use x="10.634821" y="-53.126338" xlink:href="#1-g0-116"/>
    <use x="14.509195" y="-53.126338" xlink:href="#1-g0-104"/>
    <use x="20.044012" y="-53.126338" xlink:href="#1-g0-109"/>
    <use x="31.667112" y="-53.126338" xlink:href="#1-g0-84"/>
    <use x="38.862372" y="-53.126338" xlink:href="#1-g0-104"/>
    <use x="44.397189" y="-53.126338" xlink:href="#1-g0-101"/>
    <use x="48.825041" y="-53.126338" xlink:href="#1-g0-116"/>
    <use x="52.699415" y="-53.126338" xlink:href="#1-g0-97"/>
    <use x="61.001629" y="-53.126338" xlink:href="#1-g0-61"/>
    <use x="72.071251" y="-53.126338" xlink:href="#1-g0-45"/>
    <use x="75.392138" y="-53.126338" xlink:href="#1-g0-48"/>
    <use x="80.373477" y="-53.126338" xlink:href="#1-g0-46"/>
    <use x="83.140885" y="-53.126338" xlink:href="#1-g0-48"/>
    <use x="88.122224" y="-53.126338" xlink:href="#1-g0-49"/>
   </g>
  </g>
 </g>
</svg>
